<svg xmlns="http://www.w3.org/2000/svg" width="19.968" height="16.32" viewBox="0 0 19.968 16.32">
  <path id="ico_quote2" d="M-5.5-34.08a4.312,4.312,0,0,1,3.432,1.536,6.506,6.506,0,0,1,1.32,4.368A13.325,13.325,0,0,1-1.752-22.92a14.821,14.821,0,0,1-2.976,4.44,2.3,2.3,0,0,1-1.68.72,2.433,2.433,0,0,1-1.68-.648,1.933,1.933,0,0,1-.72-1.464,1.928,1.928,0,0,1,.624-1.392,9.2,9.2,0,0,0,2.256-3.792A4.363,4.363,0,0,1-8.88-26.4a4.241,4.241,0,0,1-1.128-3.024,4.588,4.588,0,0,1,1.3-3.312A4.287,4.287,0,0,1-5.5-34.08Zm10.7,0A4.312,4.312,0,0,1,8.64-32.544a6.506,6.506,0,0,1,1.32,4.368A13.325,13.325,0,0,1,8.952-22.92a14.821,14.821,0,0,1-2.976,4.44,2.3,2.3,0,0,1-1.68.72,2.433,2.433,0,0,1-1.68-.648,1.933,1.933,0,0,1-.72-1.464,1.928,1.928,0,0,1,.624-1.392,9.2,9.2,0,0,0,2.256-3.792A4.363,4.363,0,0,1,1.824-26.4,4.241,4.241,0,0,1,.7-29.424a4.588,4.588,0,0,1,1.3-3.312A4.287,4.287,0,0,1,5.208-34.08Z" transform="translate(10.008 34.08)" fill="#efca85"/>
</svg>
