<svg xmlns="http://www.w3.org/2000/svg" width="22.75" height="22.75" viewBox="0 0 22.75 22.75">
  <path id="ico_ig" d="M11.375-12.459A2.709,2.709,0,0,0,9.031-8.395a2.709,2.709,0,0,0,4.692,0,2.709,2.709,0,0,0,.362-1.353A2.711,2.711,0,0,0,11.375-12.459Zm6.333-2.082a2.742,2.742,0,0,0-1.544-1.544c-1.066-.421-3.605-.327-4.789-.327s-3.72-.1-4.789.327a2.742,2.742,0,0,0-1.544,1.544c-.42,1.066-.327,3.608-.327,4.79S4.621-6.03,5.044-4.96A2.742,2.742,0,0,0,6.588-3.416c1.066.421,3.605.327,4.789.327s3.719.1,4.789-.327A2.742,2.742,0,0,0,17.71-4.96c.424-1.066.327-3.608.327-4.79s.1-3.72-.327-4.79ZM11.375-5.586a4.164,4.164,0,0,1-3.606-6.246,4.164,4.164,0,0,1,7.212,0,4.164,4.164,0,0,1,.558,2.082A4.159,4.159,0,0,1,11.375-5.586Zm4.336-7.531a.972.972,0,0,1-.842-1.457.972.972,0,0,1,1.683,0,.972.972,0,0,1,.13.486.97.97,0,0,1-.969.974Zm4.6-8.008H2.438A2.437,2.437,0,0,0,0-18.687V-.812A2.437,2.437,0,0,0,2.438,1.625H20.313A2.437,2.437,0,0,0,22.75-.812V-18.687A2.437,2.437,0,0,0,20.313-21.125ZM19.443-6.4A4.832,4.832,0,0,1,18.13-3a4.834,4.834,0,0,1-3.4,1.313c-1.341.076-5.362.076-6.7,0A4.841,4.841,0,0,1,4.623-3,4.817,4.817,0,0,1,3.31-6.4c-.076-1.342-.076-5.363,0-6.7a4.816,4.816,0,0,1,1.313-3.4,4.843,4.843,0,0,1,3.4-1.309c1.341-.076,5.362-.076,6.7,0a4.835,4.835,0,0,1,3.4,1.313,4.834,4.834,0,0,1,1.313,3.4C19.519-11.759,19.519-7.741,19.443-6.4Z" transform="translate(0 21.125)" fill="#d5699b"/>
</svg>
