<svg xmlns="http://www.w3.org/2000/svg" width="19.968" height="16.32" viewBox="0 0 19.968 16.32">
  <path id="ico_quote1" d="M-4.824-26.784A4.363,4.363,0,0,1-1.872-25.44,4.241,4.241,0,0,1-.744-22.416,4.635,4.635,0,0,1-2.016-19.1,4.211,4.211,0,0,1-5.208-17.76,4.383,4.383,0,0,1-8.664-19.3a6.428,6.428,0,0,1-1.344-4.368A13.325,13.325,0,0,1-9-28.92a14.418,14.418,0,0,1,3.024-4.44,2.15,2.15,0,0,1,1.632-.72,2.433,2.433,0,0,1,1.68.648,1.933,1.933,0,0,1,.72,1.464,1.842,1.842,0,0,1-.576,1.344A9.343,9.343,0,0,0-4.824-26.784Zm10.7,0A4.363,4.363,0,0,1,8.832-25.44,4.241,4.241,0,0,1,9.96-22.416,4.635,4.635,0,0,1,8.688-19.1,4.211,4.211,0,0,1,5.5-17.76,4.383,4.383,0,0,1,2.04-19.3,6.428,6.428,0,0,1,.7-23.664,13.325,13.325,0,0,1,1.7-28.92a14.418,14.418,0,0,1,3.024-4.44,2.15,2.15,0,0,1,1.632-.72,2.433,2.433,0,0,1,1.68.648,1.933,1.933,0,0,1,.72,1.464,1.842,1.842,0,0,1-.576,1.344A9.343,9.343,0,0,0,5.88-26.784Z" transform="translate(10.008 34.08)" fill="#efca85"/>
</svg>
