<svg xmlns="http://www.w3.org/2000/svg" width="22.5" height="19.699" viewBox="0 0 22.5 19.699">
  <path id="ico_mapa" d="M15.938-12.812c0,2.133-2.855,5.934-4.109,7.465a.7.7,0,0,1-1.156,0C9.418-6.879,6.563-10.68,6.563-12.812A4.687,4.687,0,0,1,11.25-17.5,4.687,4.687,0,0,1,15.938-12.812Zm-4.687,1.25a1.562,1.562,0,0,0,1.563-1.562,1.562,1.562,0,0,0-1.562-1.562,1.562,1.562,0,0,0-1.562,1.563A1.562,1.562,0,0,0,11.25-11.562Zm5.375,1.086c.02-.047.039-.094.059-.145l4.531-1.812a.937.937,0,0,1,1.285.871V-.984a.942.942,0,0,1-.59.871L16.25,2.148V-9.672C16.387-9.941,16.512-10.207,16.625-10.477Zm-10.75,0c.113.27.238.535.375.8V.148L1.286,2.137A.952.952,0,0,1,0,1.266V-9.312a.907.907,0,0,1,.589-.871L5.375-12.1a7.564,7.564,0,0,0,.5,1.621Zm6.93,5.91A32.957,32.957,0,0,0,15-7.539V2.2L7.5.055V-7.539A32.957,32.957,0,0,0,9.7-4.566,1.945,1.945,0,0,0,12.8-4.566Z" transform="translate(0 17.5)" fill="#132e9f"/>
</svg>
