<svg xmlns="http://www.w3.org/2000/svg" width="17.501" height="20" viewBox="0 0 17.501 20">
  <path id="ico_palm" d="M17.5-13.062a.5.5,0,0,1-.112.4.5.5,0,0,1-.376.167H15.59l-.625-1.25-.624,1.25H10.364a28.3,28.3,0,0,1,.723,9.059,5.65,5.65,0,0,1,3.867,4.613A1.183,1.183,0,0,1,13.715,2.5H1.253A1.262,1.262,0,0,1,.014,1.045,5.624,5.624,0,0,1,5.574-3.75H7.659a30.059,30.059,0,0,0,.821-7.91L5.742-8.887a.5.5,0,0,1-.758-.074,3.754,3.754,0,0,1,.566-4.789H4.34L3.715-15,3.09-13.75H1.743a.493.493,0,0,1-.376-.166.54.54,0,0,1-.11-.4A4.236,4.236,0,0,1,5.605-17.5a4.361,4.361,0,0,1,4.172,2.622,4.676,4.676,0,0,1,3.367-1.372A4.242,4.242,0,0,1,17.5-13.062Z" transform="translate(0 17.5)" fill="#132e9f"/>
</svg>
