<svg xmlns="http://www.w3.org/2000/svg" width="20" height="19.997" viewBox="0 0 20 19.997">
  <path id="ico_kaktus" d="M18.125-8.75A1.868,1.868,0,0,0,16.25-6.91v2.465a.594.594,0,0,1-.625.59H13.75v-9.684a3.912,3.912,0,0,0-3.55-3.953,3.81,3.81,0,0,0-2.779,1.025A3.74,3.74,0,0,0,6.25-13.75v4.965L4.375-8.75a.617.617,0,0,1-.625-.59v-2.535a1.846,1.846,0,0,0-1.875-1.84A1.846,1.846,0,0,0,0-11.875V-9.41A4.344,4.344,0,0,0,4.375-5.07H6.25V1.145A1.28,1.28,0,0,0,7.5,2.5h5a1.246,1.246,0,0,0,1.25-1.215V.07h1.875A4.366,4.366,0,0,0,20-4.27V-6.875A1.875,1.875,0,0,0,18.125-8.75ZM8.75-10.625a.617.617,0,0,1-.625-.59.678.678,0,0,1,.625-.66.622.622,0,0,1,.625.625A.622.622,0,0,1,8.75-10.625Zm2.5,8.75a.617.617,0,0,1-.625-.59.594.594,0,0,1,.625-.59.617.617,0,0,1,.625.59A.615.615,0,0,1,11.25-1.875Z" transform="translate(0 17.497)" fill="#132e9f"/>
</svg>
