<svg xmlns="http://www.w3.org/2000/svg" width="13.5" height="12" viewBox="0 0 13.5 12">
  <path id="ico_lietadlo" d="M11.3-6c.8,0,2.2.68,2.2,1.5,0,.844-1.395,1.5-2.2,1.5H8.571L6.216,1.123a.753.753,0,0,1-.652.377H4.247a.376.376,0,0,1-.361-.478L5.037-3H2.625L1.613-1.65a.377.377,0,0,1-.3.15H.329A.334.334,0,0,1,0-1.849a.357.357,0,0,1,.013-.07L.75-4.5.013-7.08A.343.343,0,0,1,0-7.172.329.329,0,0,1,.329-7.5h.984a.377.377,0,0,1,.3.15L2.625-6H5.037L3.886-10.022a.376.376,0,0,1,.361-.478H5.564a.75.75,0,0,1,.652.378L8.571-6Z" transform="translate(0 10.5)" fill="#353c58"/>
</svg>
