<svg xmlns="http://www.w3.org/2000/svg" width="22.75" height="22.75" viewBox="0 0 22.75 22.75">
  <path id="ico_fb" d="M20.313-21.125H2.438A2.437,2.437,0,0,0,0-18.687V-.812A2.437,2.437,0,0,0,2.438,1.625h6.97V-6.109h-3.2V-9.75h3.2v-2.775c0-3.156,1.879-4.9,4.757-4.9a19.381,19.381,0,0,1,2.819.246v3.1H15.4a1.82,1.82,0,0,0-2.053,1.967V-9.75h3.493l-.559,3.641H13.343V1.625h6.97A2.437,2.437,0,0,0,22.75-.812V-18.687A2.437,2.437,0,0,0,20.313-21.125Z" transform="translate(0 21.125)" fill="#4e80f2"/>
</svg>
