<svg xmlns="http://www.w3.org/2000/svg" width="17.5" height="20" viewBox="0 0 17.5 20">
  <path id="ico_taska" d="M12.5-5H5A1.253,1.253,0,0,0,3.75-3.75V-2.5h10V-3.75A1.254,1.254,0,0,0,12.5-5ZM3.75,2.5h10V-1.25h-10ZM12.5-14.375h-.312v-.937A2.189,2.189,0,0,0,10-17.5H7.5a2.189,2.189,0,0,0-2.187,2.188v.938H5a5,5,0,0,0-5,5V0A2.5,2.5,0,0,0,2.5,2.5V-3.75A2.5,2.5,0,0,1,5-6.25h7.5A2.5,2.5,0,0,1,15-3.75V2.5A2.5,2.5,0,0,0,17.5,0V-9.375A5,5,0,0,0,12.5-14.375Zm-5.313-.937a.314.314,0,0,1,.313-.312H10a.315.315,0,0,1,.313.313v.938H7.187ZM12.5-9.687a.315.315,0,0,1-.312.313H5.312A.313.313,0,0,1,5-9.687v-.625a.313.313,0,0,1,.313-.312h6.875a.313.313,0,0,1,.313.313Z" transform="translate(0 17.5)" fill="#132e9f"/>
</svg>
