<svg xmlns="http://www.w3.org/2000/svg" width="22.5" height="20" viewBox="0 0 22.5 20">
  <path id="ico_plane" d="M18.84-10c1.336,0,3.66,1.133,3.66,2.5,0,1.406-2.324,2.5-3.66,2.5H14.285L10.359,1.871A1.255,1.255,0,0,1,9.273,2.5h-2.2a.627.627,0,0,1-.6-.8L8.395-5H4.375L2.688-2.75a.628.628,0,0,1-.5.25H.548A.557.557,0,0,1,0-3.082.594.594,0,0,1,.021-3.2L1.25-7.5.021-11.8A.572.572,0,0,1,0-11.953.548.548,0,0,1,.548-12.5H2.187a.628.628,0,0,1,.5.25L4.375-10h4.02L6.477-16.7a.626.626,0,0,1,.6-.8h2.2a1.251,1.251,0,0,1,1.086.63L14.285-10Z" transform="translate(0 17.5)" fill="#132e9f"/>
</svg>
