<svg id="ornament" xmlns="http://www.w3.org/2000/svg" width="846.004" height="660.201" viewBox="0 0 846.004 660.201">
  <path id="Path_4" data-name="Path 4" d="M.76,4.078C.734,3.723.693,3.362.661,3c.325-.151.658-.3.979-.452Q4.1,1.361,6.317,0H4C3.07.52,2.117,1.023,1.13,1.5c-.19.092-.39.178-.582.269C.484,1.184.4.592.323,0H0V17.573A50.461,50.461,0,0,0,.76,4.078" transform="translate(0 0)" fill="#fff"/>
  <path id="Path_5" data-name="Path 5" d="M925.182,0c-.081.592-.161,1.184-.225,1.77-.192-.091-.392-.176-.582-.269-.986-.478-1.94-.982-2.869-1.5h-2.318q2.223,1.357,4.677,2.553c.32.155.653.3.979.452-.032.357-.072.718-.1,1.073A50.443,50.443,0,0,0,925.5,17.57V0Z" transform="translate(-79.501 0)" fill="#fff"/>
  <path id="Path_6" data-name="Path 6" d="M824.784,40.195c-.458-.326-.913-.667-1.371-.981a77.375,77.375,0,0,0-20.129-10.071,79.965,79.965,0,0,0,1.461-22.706c-.04-.561-.1-1.131-.153-1.695.506-.238,1.024-.468,1.523-.713Q809.94,2.149,813.4,0h-3.61c-1.446.82-2.93,1.615-4.468,2.37-.3.146-.607.28-.906.424-.1-.925-.224-1.86-.349-2.794h-1.835c.165,1.214.311,2.418.431,3.613-17.433,7.923-39.829,11.968-66.648,12.02Q731.262,7.326,726.31,0h-2.2q5.274,7.726,10.335,16.57C721.106,40.1,713.3,61.815,711.224,81.179c-.3-.144-.61-.279-.906-.424a76.028,76.028,0,0,1-18.131-12.24,56.241,56.241,0,0,0,12.8-18.684c6.55-15.886,4.921-33.824-3.913-49.831h-2.1c9,15.746,10.786,33.475,4.337,49.12a54.459,54.459,0,0,1-12.456,18.134A54.455,54.455,0,0,1,678.4,49.12c-6.45-15.645-4.668-33.374,4.336-49.12h-2.1c-8.835,16.007-10.463,33.944-3.915,49.831a56.271,56.271,0,0,0,12.8,18.684,76,76,0,0,1-18.13,12.24c-.3.146-.607.28-.906.424-2.079-19.364-9.882-41.075-23.225-64.61Q652.322,7.728,657.6,0h-2.2q-4.948,7.334-9.7,15.633c-26.82-.052-49.216-4.1-66.649-12.02q.181-1.793.432-3.613h-1.835c-.125.934-.25,1.869-.35,2.794-.3-.144-.609-.278-.905-.424C574.855,1.615,573.37.82,571.924,0h-3.61q3.463,2.141,7.284,4.029c.5.245,1.017.475,1.524.713-.05.564-.114,1.134-.154,1.695a79.936,79.936,0,0,0,1.461,22.706A77.343,77.343,0,0,0,558.3,39.214c-.458.314-.914.656-1.371.981-.458-.326-.912-.667-1.371-.981A77.361,77.361,0,0,0,535.43,29.143a79.938,79.938,0,0,0,1.461-22.706c-.04-.561-.1-1.131-.154-1.695.508-.238,1.026-.468,1.525-.713q3.823-1.88,7.283-4.029h-3.61c-1.447.82-2.931,1.615-4.468,2.37-.3.146-.607.28-.906.424-.1-.925-.225-1.86-.35-2.794h-1.834q.247,1.82.431,3.613c-17.433,7.923-39.829,11.968-66.648,12.02Q463.408,7.326,458.457,0h-2.2q5.275,7.726,10.336,16.57C453.251,40.1,445.448,61.815,443.37,81.179c-.3-.144-.609-.279-.905-.424a76.012,76.012,0,0,1-18.131-12.24,56.257,56.257,0,0,0,12.8-18.684c6.549-15.886,4.92-33.824-3.914-49.831h-2.1c9,15.746,10.785,33.475,4.336,49.12A54.461,54.461,0,0,1,423,67.254,54.471,54.471,0,0,1,410.546,49.12C404.1,33.475,405.88,15.746,414.883,0h-2.1c-8.835,16.007-10.463,33.944-3.914,49.831a56.258,56.258,0,0,0,12.8,18.684,76.023,76.023,0,0,1-18.13,12.24c-.3.146-.608.28-.906.424-2.079-19.364-9.882-41.075-23.224-64.61Q384.468,7.728,389.747,0h-2.2q-4.948,7.334-9.7,15.633c-26.82-.052-49.216-4.1-66.648-12.02q.181-1.793.431-3.613h-1.835c-.125.934-.25,1.869-.349,2.794-.3-.144-.609-.278-.906-.424C307,1.615,305.516.82,304.069,0h-3.61q3.463,2.141,7.283,4.029c.5.245,1.017.475,1.524.713-.05.564-.113,1.134-.153,1.695a79.9,79.9,0,0,0,1.46,22.706,77.372,77.372,0,0,0-20.128,10.071c-.458.314-.914.656-1.371.981-.458-.326-.912-.667-1.371-.981a77.372,77.372,0,0,0-20.128-10.071,79.97,79.97,0,0,0,1.46-22.706c-.04-.561-.1-1.131-.153-1.695.507-.238,1.025-.468,1.524-.713Q274.232,2.149,277.69,0h-3.61c-1.447.82-2.931,1.615-4.467,2.37-.3.146-.607.28-.906.424-.1-.925-.225-1.86-.349-2.794h-1.835q.247,1.82.431,3.613c-17.433,7.923-39.829,11.968-66.648,12.02Q195.554,7.326,190.6,0h-2.2q5.275,7.726,10.337,16.57C185.4,40.1,177.593,61.815,175.515,81.179c-.3-.144-.609-.279-.905-.424a76.029,76.029,0,0,1-18.131-12.24,56.243,56.243,0,0,0,12.8-18.684C175.83,33.944,174.2,16.007,165.367,0h-2.1c9,15.746,10.785,33.475,4.336,49.12a54.444,54.444,0,0,1-12.455,18.134A54.46,54.46,0,0,1,142.692,49.12c-6.449-15.645-4.667-33.374,4.337-49.12h-2.1c-8.834,16.007-10.463,33.944-3.914,49.831a56.256,56.256,0,0,0,12.8,18.684,76,76,0,0,1-18.13,12.24c-.3.146-.607.28-.906.424C132.7,61.815,124.9,40.1,111.556,16.57Q116.614,7.728,121.892,0h-2.2q-4.948,7.334-9.7,15.633c-26.819-.052-49.215-4.1-66.647-12.02q.18-1.793.431-3.613H41.938c-.126.934-.25,1.869-.35,2.794-.3-.144-.609-.278-.905-.424C39.146,1.615,37.662.82,36.215,0H32.6q3.463,2.141,7.284,4.029c.5.245,1.017.475,1.524.713-.05.564-.114,1.134-.153,1.695a79.9,79.9,0,0,0,1.46,22.706A77.343,77.343,0,0,0,22.592,39.214c-.458.314-.914.656-1.371.981-.458-.326-.912-.667-1.371-.981A77.55,77.55,0,0,0,0,29.238v1.944a76.069,76.069,0,0,1,18.829,9.559c.273.187.542.392.815.583A126.631,126.631,0,0,0,0,59.759v2.786A125.973,125.973,0,0,1,21.221,42.452C36.707,53.8,51.359,71.436,64.813,94.955,51.47,118.49,43.667,140.2,41.588,159.565c-.3-.144-.609-.279-.905-.424A76.03,76.03,0,0,1,22.552,146.9a56.257,56.257,0,0,0,12.8-18.684c8.365-20.293,3.39-43.935-12.911-62.625-.4-.462-.806-.923-1.223-1.379-.417.456-.821.917-1.224,1.379C3.7,84.281-1.279,107.923,7.086,128.216a56.257,56.257,0,0,0,12.8,18.684,76.024,76.024,0,0,1-18.13,12.24c-.3.146-.607.28-.906.424-.217-2.022-.512-4.076-.853-6.149v31.092a80.722,80.722,0,0,0,1.183-21.3c-.04-.561-.1-1.131-.154-1.695.508-.238,1.026-.468,1.525-.713a77.736,77.736,0,0,0,18.668-12.635A77.718,77.718,0,0,0,39.889,160.8c.5.245,1.017.475,1.524.713-.05.564-.114,1.134-.153,1.695a79.9,79.9,0,0,0,1.46,22.706,77.342,77.342,0,0,0-20.128,10.071c-.458.314-.914.656-1.371.981-.458-.326-.912-.667-1.371-.981A77.55,77.55,0,0,0,0,186.008v1.944a76.1,76.1,0,0,1,18.829,9.558c.273.188.542.393.815.584A126.63,126.63,0,0,0,0,216.529v2.786a125.971,125.971,0,0,1,21.221-20.092c15.486,11.344,30.138,28.983,43.592,52.5C51.47,275.26,43.667,296.971,41.588,316.335c-.3-.144-.609-.278-.905-.424a76.032,76.032,0,0,1-18.131-12.24,56.257,56.257,0,0,0,12.8-18.684c8.365-20.293,3.39-43.935-12.911-62.625-.4-.462-.806-.923-1.223-1.379-.417.456-.821.917-1.224,1.379C3.7,241.051-1.279,264.693,7.086,284.986a56.257,56.257,0,0,0,12.8,18.684,76.026,76.026,0,0,1-18.13,12.24c-.3.146-.607.28-.906.424-.217-2.022-.512-4.076-.853-6.149v31.092a80.722,80.722,0,0,0,1.183-21.3c-.04-.561-.1-1.131-.154-1.7.508-.238,1.026-.467,1.525-.713a77.762,77.762,0,0,0,18.668-12.635A77.744,77.744,0,0,0,39.889,317.57c.5.245,1.017.475,1.524.713-.05.564-.114,1.134-.153,1.7a79.9,79.9,0,0,0,1.46,22.706,77.344,77.344,0,0,0-20.128,10.071c-.458.314-.914.656-1.371.981-.458-.326-.912-.667-1.371-.981A77.546,77.546,0,0,0,0,342.778v1.944a76.1,76.1,0,0,1,18.829,9.558c.273.188.542.393.815.584A126.632,126.632,0,0,0,0,373.3v2.786a125.972,125.972,0,0,1,21.221-20.092c15.486,11.344,30.138,28.983,43.592,52.5-13.343,23.535-21.146,45.246-23.225,64.61-.3-.144-.609-.279-.905-.424a76.033,76.033,0,0,1-18.131-12.24,56.257,56.257,0,0,0,12.8-18.684c8.365-20.293,3.39-43.935-12.911-62.625-.4-.462-.806-.923-1.223-1.379-.417.456-.821.917-1.224,1.379C3.7,397.821-1.279,421.463,7.086,441.757a56.257,56.257,0,0,0,12.8,18.684,76.027,76.027,0,0,1-18.13,12.24c-.3.146-.607.28-.906.424-.217-2.022-.512-4.076-.853-6.149v31.092a80.722,80.722,0,0,0,1.183-21.3c-.04-.561-.1-1.13-.154-1.695.508-.238,1.026-.468,1.525-.713a77.741,77.741,0,0,0,18.668-12.635A77.723,77.723,0,0,0,39.889,474.34c.5.245,1.017.475,1.524.713-.05.564-.114,1.134-.153,1.695a79.9,79.9,0,0,0,1.46,22.706,77.351,77.351,0,0,0-20.128,10.071c-.458.314-.914.656-1.371.981-.458-.326-.912-.667-1.371-.981A77.551,77.551,0,0,0,0,499.549v1.944a76.067,76.067,0,0,1,18.829,9.559c.273.187.542.392.815.583A126.632,126.632,0,0,0,0,530.07v2.786a125.978,125.978,0,0,1,21.221-20.092c15.486,11.344,30.138,28.983,43.592,52.5C51.47,588.8,43.667,610.512,41.588,629.875c-.3-.144-.609-.278-.905-.424a76.031,76.031,0,0,1-18.131-12.24,56.257,56.257,0,0,0,12.8-18.684c8.365-20.294,3.39-43.935-12.911-62.625-.4-.462-.806-.923-1.223-1.379-.417.456-.821.917-1.224,1.379C3.7,554.592-1.279,578.233,7.086,598.527a56.257,56.257,0,0,0,12.8,18.684,76.025,76.025,0,0,1-18.13,12.24c-.3.146-.607.28-.906.424C.636,627.853.341,625.8,0,623.726v31.092a80.722,80.722,0,0,0,1.183-21.3c-.04-.561-.1-1.13-.154-1.695.508-.238,1.026-.467,1.525-.713a77.761,77.761,0,0,0,18.668-12.635A77.743,77.743,0,0,0,39.889,631.11c.5.245,1.017.475,1.524.713-.05.564-.114,1.134-.153,1.695a79.9,79.9,0,0,0,1.46,22.706,70.987,70.987,0,0,0-9.77,3.977h4.41c1.925-.823,3.851-1.557,5.774-2.177.182.736.387,1.457.591,2.177h1.886q-.394-1.34-.733-2.715A53,53,0,0,1,66.6,655.619,49.248,49.248,0,0,1,81.829,660.2h3.945a51.289,51.289,0,0,0-18.946-6.412,54.746,54.746,0,0,0-22.363,1.9,78.147,78.147,0,0,1-1.391-22.037c.024-.332.064-.672.091-1.007,17.58,7.858,40.03,11.862,66.806,11.914q4.519,7.972,8.169,15.644h2.019q-3.829-8.113-8.6-16.55c13.453-23.519,28.105-41.159,43.592-52.5,15.486,11.344,30.138,28.983,43.592,52.5q-4.784,8.438-8.6,16.55h2.02q3.66-7.674,8.169-15.644c26.776-.053,49.225-4.057,66.806-11.914.027.335.067.675.091,1.007a78.144,78.144,0,0,1-1.391,22.037,54.75,54.75,0,0,0-22.364-1.9,51.285,51.285,0,0,0-18.945,6.412h3.944a49.256,49.256,0,0,1,15.233-4.582,53,53,0,0,1,21.72,1.867q-.338,1.376-.733,2.715h1.885c.2-.72.409-1.441.591-2.177,1.924.621,3.85,1.355,5.774,2.177h4.41a71.02,71.02,0,0,0-9.769-3.977,79.969,79.969,0,0,0,1.46-22.706c-.04-.561-.1-1.13-.153-1.695.507-.238,1.025-.467,1.524-.713a77.762,77.762,0,0,0,18.668-12.635,77.762,77.762,0,0,0,18.668,12.635c.5.245,1.017.475,1.524.713-.05.564-.113,1.134-.153,1.695a79.9,79.9,0,0,0,1.46,22.706,71.079,71.079,0,0,0-9.77,3.977h4.411c1.924-.823,3.85-1.557,5.774-2.177.182.736.387,1.457.591,2.177h1.885q-.394-1.34-.733-2.715a53,53,0,0,1,21.72-1.867,49.251,49.251,0,0,1,15.232,4.582h3.945a51.291,51.291,0,0,0-18.945-6.412,54.749,54.749,0,0,0-22.364,1.9,78.149,78.149,0,0,1-1.391-22.037c.024-.332.064-.672.091-1.007C328.6,640.5,351.05,644.5,377.825,644.557q4.521,7.972,8.169,15.644h2.02q-3.83-8.113-8.6-16.55c13.453-23.519,28.106-41.159,43.591-52.5,15.486,11.344,30.139,28.983,43.592,52.5q-4.783,8.438-8.6,16.55h2.02q3.659-7.674,8.169-15.644c26.776-.053,49.225-4.057,66.806-11.914.026.335.067.675.091,1.007a78.143,78.143,0,0,1-1.392,22.037,54.746,54.746,0,0,0-22.363-1.9,51.285,51.285,0,0,0-18.945,6.412h3.945a49.246,49.246,0,0,1,15.232-4.582,53,53,0,0,1,21.72,1.867q-.338,1.376-.734,2.715h1.885c.206-.72.41-1.441.592-2.177,1.924.621,3.85,1.355,5.774,2.177h4.41a70.985,70.985,0,0,0-9.77-3.977,79.937,79.937,0,0,0,1.461-22.706c-.04-.561-.1-1.13-.154-1.695.508-.238,1.026-.467,1.525-.713a77.76,77.76,0,0,0,18.668-12.635A77.724,77.724,0,0,0,575.6,631.11c.5.245,1.017.475,1.524.713-.05.564-.114,1.134-.154,1.695a79.934,79.934,0,0,0,1.461,22.706,71.036,71.036,0,0,0-9.77,3.977h4.41c1.925-.823,3.85-1.557,5.774-2.177.182.736.387,1.457.592,2.177h1.885q-.394-1.34-.734-2.715a53,53,0,0,1,21.72-1.867,49.261,49.261,0,0,1,15.234,4.582h3.944a51.29,51.29,0,0,0-18.946-6.412,54.747,54.747,0,0,0-22.363,1.9,78.151,78.151,0,0,1-1.391-22.037c.023-.332.064-.672.091-1.007,17.58,7.858,40.03,11.862,66.806,11.914q4.519,7.972,8.169,15.644h2.019q-3.829-8.113-8.6-16.55c13.454-23.519,28.107-41.159,43.593-52.5,15.486,11.344,30.138,28.983,43.591,52.5q-4.783,8.438-8.6,16.55h2.02q3.66-7.674,8.168-15.644c26.776-.053,49.227-4.057,66.807-11.914.027.335.067.675.091,1.007a78.117,78.117,0,0,1-1.391,22.037,54.746,54.746,0,0,0-22.363-1.9,51.286,51.286,0,0,0-18.945,6.412h3.944a49.243,49.243,0,0,1,15.232-4.582,53.006,53.006,0,0,1,21.72,1.867q-.338,1.376-.734,2.715h1.886c.2-.72.409-1.441.591-2.177,1.924.621,3.849,1.355,5.774,2.177h4.41a71.088,71.088,0,0,0-9.77-3.977,79.963,79.963,0,0,0,1.461-22.706c-.04-.561-.1-1.13-.153-1.695.506-.238,1.024-.467,1.523-.713a77.761,77.761,0,0,0,18.668-12.635,77.762,77.762,0,0,0,18.668,12.635c.5.245,1.017.475,1.524.713-.05.564-.113,1.134-.153,1.695a80.7,80.7,0,0,0,1.182,21.3V623.732c-.341,2.071-.635,4.123-.852,6.143-.3-.144-.61-.278-.906-.424a76.022,76.022,0,0,1-18.13-12.24,56.257,56.257,0,0,0,12.8-18.684c8.365-20.294,3.389-43.935-12.91-62.625-.4-.462-.807-.923-1.224-1.379-.416.456-.821.917-1.223,1.379-16.3,18.69-21.276,42.332-12.911,62.625a56.243,56.243,0,0,0,12.8,18.684,76.008,76.008,0,0,1-18.131,12.24c-.3.146-.607.28-.906.424-2.078-19.364-9.881-41.075-23.224-64.61,13.454-23.519,28.106-41.159,43.592-52.5A126,126,0,0,1,846,532.855V530.07a126.63,126.63,0,0,0-19.644-18.435c.272-.191.542-.4.815-.583A76.014,76.014,0,0,1,846,501.493v-1.945a77.509,77.509,0,0,0-19.848,9.976c-.458.314-.913.656-1.371.981-.458-.326-.913-.667-1.371-.981a77.382,77.382,0,0,0-20.129-10.071,79.964,79.964,0,0,0,1.461-22.706c-.04-.561-.1-1.13-.153-1.695.506-.238,1.024-.468,1.523-.713a77.74,77.74,0,0,0,18.668-12.635,77.741,77.741,0,0,0,18.668,12.635c.5.245,1.017.475,1.524.713-.05.564-.113,1.134-.153,1.695a80.7,80.7,0,0,0,1.182,21.3V466.962c-.341,2.071-.635,4.123-.852,6.144-.3-.144-.61-.279-.906-.424a76.023,76.023,0,0,1-18.13-12.24,56.257,56.257,0,0,0,12.8-18.684c8.365-20.293,3.389-43.935-12.91-62.625-.4-.462-.807-.923-1.224-1.379-.416.456-.821.917-1.223,1.379-16.3,18.69-21.276,42.332-12.911,62.625a56.243,56.243,0,0,0,12.8,18.684,76.01,76.01,0,0,1-18.131,12.24c-.3.146-.607.28-.906.424-2.078-19.364-9.881-41.075-23.224-64.61,13.454-23.519,28.106-41.159,43.592-52.5A125.991,125.991,0,0,1,846,376.085V373.3a126.62,126.62,0,0,0-19.644-18.434c.272-.191.542-.4.815-.584A76.043,76.043,0,0,1,846,344.723v-1.945a77.5,77.5,0,0,0-19.848,9.976c-.458.314-.913.656-1.371.981-.458-.326-.913-.667-1.371-.981a77.376,77.376,0,0,0-20.129-10.071,79.964,79.964,0,0,0,1.461-22.706c-.04-.561-.1-1.131-.153-1.7.506-.238,1.024-.467,1.523-.713a77.762,77.762,0,0,0,18.668-12.635,77.762,77.762,0,0,0,18.668,12.635c.5.245,1.017.475,1.524.713-.05.564-.113,1.134-.153,1.7a80.7,80.7,0,0,0,1.182,21.3V310.191c-.341,2.071-.635,4.123-.852,6.144-.3-.144-.61-.278-.906-.424a76.022,76.022,0,0,1-18.13-12.24,56.257,56.257,0,0,0,12.8-18.684c8.365-20.293,3.389-43.935-12.91-62.625-.4-.462-.807-.923-1.224-1.379-.416.456-.821.917-1.223,1.379-16.3,18.69-21.276,42.332-12.911,62.625a56.243,56.243,0,0,0,12.8,18.684,76.009,76.009,0,0,1-18.131,12.24c-.3.146-.607.28-.906.424-2.078-19.364-9.881-41.075-23.224-64.609,13.454-23.52,28.106-41.16,43.592-52.5A125.993,125.993,0,0,1,846,219.314v-2.786a126.62,126.62,0,0,0-19.644-18.434c.272-.191.542-.4.815-.584A76.041,76.041,0,0,1,846,187.953v-1.945a77.508,77.508,0,0,0-19.848,9.976c-.458.314-.913.656-1.371.981-.458-.326-.913-.667-1.371-.981a77.373,77.373,0,0,0-20.129-10.071,79.965,79.965,0,0,0,1.461-22.706c-.04-.561-.1-1.131-.153-1.695.506-.238,1.024-.468,1.523-.713a77.735,77.735,0,0,0,18.668-12.635A77.736,77.736,0,0,0,843.451,160.8c.5.245,1.017.475,1.524.713-.05.564-.113,1.134-.153,1.695A80.7,80.7,0,0,0,846,184.5V153.421c-.341,2.071-.635,4.123-.852,6.144-.3-.144-.61-.279-.906-.424a76.02,76.02,0,0,1-18.13-12.24,56.257,56.257,0,0,0,12.8-18.684c8.365-20.293,3.389-43.935-12.91-62.625-.4-.462-.807-.923-1.224-1.379-.416.456-.821.917-1.223,1.379-16.3,18.69-21.276,42.332-12.911,62.625a56.242,56.242,0,0,0,12.8,18.684,76.007,76.007,0,0,1-18.131,12.24c-.3.146-.607.28-.906.424-2.078-19.364-9.881-41.075-23.224-64.61,13.454-23.519,28.106-41.159,43.592-52.5A125.994,125.994,0,0,1,846,62.544V59.759A126.629,126.629,0,0,0,826.36,41.324c.272-.191.542-.4.815-.583A76.014,76.014,0,0,1,846,31.183V29.238a77.508,77.508,0,0,0-19.848,9.976c-.458.314-.913.656-1.371.981M8.765,127.5C.7,107.935,5.5,85.1,21.221,66.97,36.943,85.1,41.743,107.935,33.676,127.5a54.471,54.471,0,0,1-12.455,18.134A54.46,54.46,0,0,1,8.765,127.5m0,156.77C.7,264.7,5.5,241.869,21.221,223.74c15.722,18.129,20.522,40.965,12.455,60.535a54.471,54.471,0,0,1-12.455,18.134A54.46,54.46,0,0,1,8.765,284.275m0,156.77C.7,421.475,5.5,398.639,21.221,380.51c15.722,18.129,20.522,40.965,12.455,60.535a54.471,54.471,0,0,1-12.455,18.134A54.46,54.46,0,0,1,8.765,441.046m0,156.77C.7,578.246,5.5,555.41,21.221,537.28c15.722,18.129,20.522,40.965,12.455,60.536A54.471,54.471,0,0,1,21.221,615.95,54.461,54.461,0,0,1,8.765,597.816m803.564,0c-8.069-19.57-3.268-42.406,12.454-60.536,15.723,18.129,20.522,40.965,12.456,60.536a54.433,54.433,0,0,1-12.456,18.134,54.452,54.452,0,0,1-12.454-18.134m0-156.77c-8.069-19.571-3.268-42.406,12.454-60.535,15.723,18.129,20.522,40.965,12.456,60.535a54.432,54.432,0,0,1-12.456,18.134,54.451,54.451,0,0,1-12.454-18.134m0-156.77c-8.069-19.57-3.268-42.406,12.454-60.535,15.723,18.129,20.522,40.965,12.456,60.535a54.432,54.432,0,0,1-12.456,18.134,54.451,54.451,0,0,1-12.454-18.134m0-156.77c-8.069-19.57-3.268-42.405,12.454-60.535,15.723,18.13,20.522,40.965,12.456,60.535a54.432,54.432,0,0,1-12.456,18.134A54.451,54.451,0,0,1,812.329,127.5M670.818,84.822c-.04-.561-.1-1.131-.153-1.695.507-.238,1.025-.468,1.524-.713a77.737,77.737,0,0,0,18.668-12.635,77.738,77.738,0,0,0,18.667,12.635c.5.245,1.017.475,1.524.713-.05.564-.113,1.134-.153,1.695a79.937,79.937,0,0,0,1.46,22.706A77.357,77.357,0,0,0,692.227,117.6c-.458.314-.913.656-1.371.981-.458-.326-.912-.667-1.371-.981a77.36,77.36,0,0,0-20.128-10.071,79.907,79.907,0,0,0,1.461-22.706M690.857,275.35c-.458-.326-.912-.667-1.371-.981A77.36,77.36,0,0,0,669.357,264.3a79.9,79.9,0,0,0,1.461-22.706c-.04-.561-.1-1.131-.153-1.7.507-.238,1.025-.468,1.524-.713a77.762,77.762,0,0,0,18.668-12.635,77.764,77.764,0,0,0,18.667,12.635c.5.245,1.017.475,1.524.713-.05.564-.113,1.134-.153,1.7a79.934,79.934,0,0,0,1.46,22.706,77.357,77.357,0,0,0-20.128,10.071c-.458.314-.913.656-1.371.981m0,156.77c-.458-.325-.912-.667-1.371-.981a77.36,77.36,0,0,0-20.128-10.071,79.907,79.907,0,0,0,1.461-22.706c-.04-.561-.1-1.131-.153-1.695.507-.238,1.025-.468,1.524-.713a77.763,77.763,0,0,0,18.668-12.635,77.764,77.764,0,0,0,18.667,12.635c.5.245,1.017.475,1.524.713-.05.564-.113,1.134-.153,1.695a79.936,79.936,0,0,0,1.46,22.706,77.358,77.358,0,0,0-20.128,10.071c-.458.314-.913.656-1.371.981m0,105.444A54.456,54.456,0,0,1,678.4,519.431c-8.067-19.57-3.268-42.405,12.455-60.535,15.722,18.13,20.523,40.965,12.456,60.535a54.46,54.46,0,0,1-12.456,18.134m14.134-17.423c8.366-20.293,3.39-43.935-12.91-62.625-.4-.462-.807-.923-1.224-1.379-.417.456-.821.917-1.224,1.379-16.3,18.69-21.276,42.332-12.911,62.625a56.261,56.261,0,0,0,12.8,18.684,76.005,76.005,0,0,1-18.13,12.24c-.3.146-.607.28-.906.424-2.079-19.364-9.882-41.075-23.225-64.61,13.454-23.519,28.107-41.159,43.593-52.5,15.486,11.344,30.138,28.983,43.591,52.5-13.341,23.535-21.146,45.246-23.223,64.61-.3-.144-.61-.279-.906-.424a76.033,76.033,0,0,1-18.131-12.24,56.231,56.231,0,0,0,12.8-18.684m-102.9,44.187c-13.433-23.481-28.079-41.188-43.582-52.694.272-.191.542-.4.815-.583a75.674,75.674,0,0,1,19.521-9.8,56.572,56.572,0,0,0,9.561,20.583c13.154,17.491,35.839,24.944,59.956,19.977.6-.122,1.192-.246,1.789-.385-.181-.593-.374-1.179-.567-1.763-7.816-23.656-25.525-39.845-47.045-42.647a54.746,54.746,0,0,0-22.363,1.9,78.151,78.151,0,0,1-1.391-22.037c.023-.332.064-.672.091-1.007,17.58,7.858,40.03,11.862,66.806,11.915,13.366,23.573,21.108,45.256,23.056,64.522-17.433,7.923-39.829,11.968-66.648,12.02m-90.318,0c-26.819-.052-49.215-4.1-66.648-12.02,1.948-19.266,9.691-40.949,23.057-64.522,26.776-.053,49.225-4.057,66.806-11.915.026.335.067.675.091,1.007a78.143,78.143,0,0,1-1.392,22.037,54.745,54.745,0,0,0-22.363-1.9c-21.519,2.8-39.229,18.991-47.044,42.647-.194.585-.386,1.17-.568,1.763.6.138,1.194.263,1.79.385,24.117,4.967,46.8-2.486,59.955-19.977a56.557,56.557,0,0,0,9.561-20.583,75.693,75.693,0,0,1,19.522,9.8c.273.187.542.392.814.583-15.5,11.506-30.149,29.213-43.582,52.694M423,537.565a54.472,54.472,0,0,1-12.455-18.134C402.479,499.86,407.28,477.025,423,458.9c15.723,18.13,20.523,40.965,12.456,60.535A54.462,54.462,0,0,1,423,537.565m14.135-17.423c8.365-20.293,3.39-43.935-12.911-62.625-.4-.462-.807-.923-1.224-1.379-.417.456-.82.917-1.223,1.379-16.3,18.69-21.277,42.332-12.911,62.625a56.248,56.248,0,0,0,12.8,18.684,76.028,76.028,0,0,1-18.13,12.24c-.3.146-.608.28-.906.424-2.079-19.364-9.882-41.075-23.224-64.61,13.453-23.519,28.106-41.159,43.591-52.5,15.486,11.344,30.139,28.983,43.592,52.5-13.342,23.535-21.146,45.246-23.224,64.61-.3-.144-.609-.279-.905-.424a76.016,76.016,0,0,1-18.131-12.24,56.247,56.247,0,0,0,12.8-18.684m-102.9,44.187c-13.434-23.481-28.08-41.188-43.583-52.694.272-.191.542-.4.815-.583a75.679,75.679,0,0,1,19.522-9.8,56.572,56.572,0,0,0,9.56,20.583c13.155,17.491,35.839,24.944,59.955,19.977.6-.122,1.193-.246,1.79-.385-.181-.593-.374-1.179-.567-1.763-7.816-23.656-25.525-39.845-47.044-42.647a54.748,54.748,0,0,0-22.364,1.9,78.149,78.149,0,0,1-1.391-22.037c.024-.332.064-.672.091-1.007,17.581,7.858,40.031,11.862,66.806,11.915,13.366,23.573,21.109,45.256,23.057,64.522-17.433,7.923-39.829,11.968-66.648,12.02m-90.319,0c-26.819-.052-49.215-4.1-66.647-12.02,1.947-19.266,9.69-40.949,23.056-64.522,26.776-.053,49.225-4.057,66.806-11.915.027.335.067.675.091,1.007a78.144,78.144,0,0,1-1.391,22.037,54.749,54.749,0,0,0-22.364-1.9c-21.519,2.8-39.228,18.991-47.044,42.647-.194.585-.386,1.17-.567,1.763.6.138,1.193.263,1.79.385,24.117,4.967,46.8-2.486,59.955-19.977a56.572,56.572,0,0,0,9.56-20.583,75.679,75.679,0,0,1,19.522,9.8c.273.187.543.392.815.583-15.5,11.506-30.15,29.213-43.583,52.694m-88.768-26.764a54.461,54.461,0,0,1-12.456-18.134c-8.067-19.57-3.267-42.405,12.456-60.535,15.723,18.13,20.522,40.965,12.455,60.535a54.445,54.445,0,0,1-12.455,18.134m14.134-17.423c8.365-20.293,3.39-43.935-12.91-62.625-.4-.462-.807-.923-1.224-1.379-.417.456-.821.917-1.224,1.379-16.3,18.69-21.277,42.332-12.911,62.625a56.247,56.247,0,0,0,12.8,18.684,76.009,76.009,0,0,1-18.13,12.24c-.3.146-.607.28-.906.424-2.079-19.364-9.882-41.075-23.224-64.61,13.453-23.519,28.105-41.159,43.592-52.5,15.486,11.344,30.138,28.983,43.592,52.5-13.343,23.535-21.146,45.246-23.225,64.61-.3-.144-.609-.279-.905-.424a76.033,76.033,0,0,1-18.131-12.24,56.233,56.233,0,0,0,12.8-18.684m99.755-356.935c-.04-.561-.1-1.131-.153-1.695.507-.238,1.025-.468,1.524-.713a77.736,77.736,0,0,0,18.668-12.635A77.736,77.736,0,0,0,307.742,160.8c.5.245,1.017.475,1.524.713-.05.564-.113,1.134-.153,1.695a79.9,79.9,0,0,0,1.46,22.706,77.37,77.37,0,0,0-20.128,10.071c-.458.314-.914.656-1.371.981-.458-.326-.912-.667-1.371-.981a77.371,77.371,0,0,0-20.128-10.071,79.97,79.97,0,0,0,1.46-22.706m7.582-35.7c-8.067-19.57-3.267-42.405,12.456-60.535C304.8,85.1,309.6,107.935,301.53,127.5a54.444,54.444,0,0,1-12.455,18.134A54.461,54.461,0,0,1,276.619,127.5m34.31,35.834c.024-.332.064-.672.091-1.007,17.581,7.858,40.031,11.862,66.806,11.915,13.366,23.572,21.109,45.256,23.057,64.522-17.433,7.924-39.829,11.968-66.648,12.02-13.434-23.481-28.08-41.188-43.583-52.694.272-.191.542-.4.815-.584a75.706,75.706,0,0,1,19.522-9.8,56.571,56.571,0,0,0,9.56,20.583c13.155,17.491,35.839,24.944,59.955,19.977.6-.122,1.193-.246,1.79-.385-.181-.593-.374-1.179-.567-1.763-7.816-23.656-25.525-39.845-47.044-42.647a54.749,54.749,0,0,0-22.364,1.9,78.148,78.148,0,0,1-1.391-22.037m225.963-.132c-.04-.561-.1-1.131-.154-1.695.508-.238,1.026-.468,1.525-.713a77.735,77.735,0,0,0,18.668-12.635A77.7,77.7,0,0,0,575.6,160.8c.5.245,1.017.475,1.524.713-.05.564-.114,1.134-.154,1.695a79.936,79.936,0,0,0,1.461,22.706A77.341,77.341,0,0,0,558.3,195.984c-.458.314-.914.656-1.371.981-.458-.326-.912-.667-1.371-.981a77.359,77.359,0,0,0-20.128-10.071,79.938,79.938,0,0,0,1.461-22.706m7.582-35.7c-8.067-19.57-3.267-42.405,12.456-60.535,15.722,18.13,20.522,40.965,12.455,60.535a54.469,54.469,0,0,1-12.455,18.134A54.459,54.459,0,0,1,544.473,127.5m34.309,35.834c.023-.332.064-.672.091-1.007,17.58,7.858,40.03,11.862,66.806,11.915,13.366,23.572,21.108,45.256,23.056,64.522-17.433,7.924-39.829,11.968-66.648,12.02-13.433-23.481-28.079-41.188-43.582-52.694.272-.191.542-.4.815-.584a75.7,75.7,0,0,1,19.521-9.8A56.572,56.572,0,0,0,588.4,208.3c13.154,17.491,35.839,24.944,59.956,19.977.6-.122,1.192-.246,1.789-.385-.181-.593-.374-1.179-.567-1.763-7.816-23.656-25.525-39.845-47.045-42.647a54.746,54.746,0,0,0-22.363,1.9,78.15,78.15,0,0,1-1.391-22.037m66.466,98.525c-21.52,2.8-39.228,18.991-47.044,42.647-.193.585-.386,1.17-.567,1.763.6.138,1.194.263,1.79.385,24.117,4.967,46.8-2.486,59.955-19.977a56.572,56.572,0,0,0,9.56-20.583,75.706,75.706,0,0,1,19.522,9.8c.273.188.543.393.815.584-15.5,11.506-30.149,29.213-43.582,52.694-26.82-.052-49.216-4.1-66.649-12.02,1.948-19.266,9.69-40.95,23.057-64.522,26.776-.053,49.225-4.057,66.805-11.915.027.335.067.674.092,1.007a78.109,78.109,0,0,1-1.392,22.037,54.742,54.742,0,0,0-22.363-1.9m21.951,3.7a54.776,54.776,0,0,1-9.263,20c-12.686,16.868-34.594,24.072-57.943,19.332,7.627-22.868,24.734-38.5,45.487-41.2a52.988,52.988,0,0,1,21.72,1.867M645.249,418.634c-21.52,2.8-39.228,18.991-47.044,42.647-.193.585-.386,1.17-.567,1.763.6.138,1.194.263,1.79.385,24.117,4.967,46.8-2.486,59.955-19.977a56.572,56.572,0,0,0,9.56-20.583,75.7,75.7,0,0,1,19.522,9.8c.273.188.543.393.815.584-15.5,11.506-30.149,29.213-43.582,52.694-26.82-.052-49.216-4.1-66.649-12.02,1.948-19.266,9.69-40.949,23.057-64.522,26.776-.053,49.225-4.058,66.805-11.915.027.335.067.674.092,1.007a78.108,78.108,0,0,1-1.392,22.037,54.746,54.746,0,0,0-22.363-1.9m21.951,3.7a54.775,54.775,0,0,1-9.263,20c-12.686,16.868-34.594,24.072-57.943,19.333,7.627-22.868,24.734-38.5,45.487-41.2a52.99,52.99,0,0,1,21.72,1.867M556.93,459.179a54.459,54.459,0,0,1-12.456-18.134c-8.067-19.571-3.267-42.406,12.456-60.535,15.722,18.129,20.522,40.965,12.455,60.535a54.469,54.469,0,0,1-12.455,18.134m14.134-17.423c8.365-20.293,3.39-43.935-12.911-62.625-.4-.462-.806-.923-1.223-1.379-.417.456-.821.917-1.224,1.379-16.3,18.69-21.277,42.332-12.911,62.625a56.255,56.255,0,0,0,12.8,18.684,76.028,76.028,0,0,1-18.13,12.24c-.3.146-.607.28-.906.424-2.079-19.364-9.882-41.075-23.224-64.61,13.453-23.519,28.105-41.159,43.592-52.5,15.485,11.344,30.138,28.983,43.592,52.5-13.343,23.535-21.146,45.246-23.225,64.61-.3-.144-.609-.279-.905-.424a76.035,76.035,0,0,1-18.131-12.24,56.256,56.256,0,0,0,12.8-18.684M424.578,433.25c.273-.191.543-.4.815-.584a75.715,75.715,0,0,1,19.522-9.8,56.556,56.556,0,0,0,9.561,20.583c13.154,17.491,35.839,24.944,59.955,19.977.6-.122,1.192-.246,1.79-.385-.182-.593-.374-1.179-.567-1.763-7.816-23.656-25.526-39.845-47.045-42.647a54.749,54.749,0,0,0-22.363,1.9,78.143,78.143,0,0,1-1.392-22.037c.024-.333.064-.672.092-1.007,17.58,7.857,40.03,11.862,66.805,11.915,13.367,23.573,21.11,45.256,23.057,64.522-17.433,7.923-39.829,11.968-66.648,12.02-13.433-23.481-28.079-41.188-43.583-52.694m-46.735,52.694c-26.82-.052-49.216-4.1-66.648-12.02,1.947-19.266,9.69-40.949,23.056-64.522,26.776-.053,49.226-4.058,66.806-11.915.027.335.068.674.092,1.007a78.145,78.145,0,0,1-1.392,22.037,54.749,54.749,0,0,0-22.363-1.9c-21.52,2.8-39.229,18.991-47.045,42.647-.193.585-.385,1.17-.567,1.763.6.138,1.194.263,1.79.385,24.117,4.967,46.8-2.486,59.955-19.977a56.556,56.556,0,0,0,9.561-20.583,75.714,75.714,0,0,1,19.522,9.8c.272.188.542.393.815.584-15.5,11.506-30.15,29.213-43.583,52.694m-88.769-26.764a54.46,54.46,0,0,1-12.456-18.134c-8.067-19.571-3.267-42.406,12.456-60.535,15.723,18.129,20.522,40.965,12.455,60.535a54.444,54.444,0,0,1-12.455,18.134m14.135-17.423c8.365-20.293,3.389-43.935-12.911-62.625-.4-.462-.807-.923-1.224-1.379-.417.456-.821.917-1.224,1.379-16.3,18.69-21.276,42.332-12.911,62.625a56.27,56.27,0,0,0,12.8,18.684,76.008,76.008,0,0,1-18.13,12.24c-.3.146-.607.28-.906.424-2.078-19.364-9.882-41.075-23.224-64.61,13.454-23.519,28.106-41.159,43.592-52.5,15.486,11.344,30.138,28.983,43.592,52.5-13.343,23.535-21.146,45.246-23.224,64.61-.3-.144-.609-.279-.906-.424a76.033,76.033,0,0,1-18.131-12.24,56.259,56.259,0,0,0,12.8-18.684M156.724,433.25c.272-.191.542-.4.815-.584a75.687,75.687,0,0,1,19.522-9.8,56.571,56.571,0,0,0,9.56,20.583c13.154,17.491,35.839,24.944,59.955,19.977.6-.122,1.193-.246,1.79-.385-.181-.593-.374-1.179-.567-1.763-7.816-23.656-25.525-39.845-47.045-42.647a54.749,54.749,0,0,0-22.363,1.9A78.146,78.146,0,0,1,177,398.494c.024-.333.064-.672.091-1.007,17.58,7.857,40.03,11.862,66.806,11.915,13.366,23.573,21.109,45.256,23.056,64.522-17.433,7.923-39.829,11.968-66.648,12.02-13.433-23.481-28.079-41.188-43.582-52.694m22.08-10.919a52.988,52.988,0,0,1,21.72-1.867c20.753,2.7,37.86,18.334,45.487,41.2-23.349,4.739-45.258-2.465-57.943-19.333a54.776,54.776,0,0,1-9.263-20m7.817-135.65c13.154,17.491,35.839,24.944,59.955,19.977.6-.122,1.193-.246,1.79-.385-.181-.593-.374-1.179-.567-1.763-7.816-23.656-25.525-39.845-47.045-42.647a54.745,54.745,0,0,0-22.363,1.9A78.146,78.146,0,0,1,177,241.724c.024-.333.064-.672.091-1.007,17.58,7.858,40.03,11.862,66.806,11.915,13.366,23.572,21.109,45.256,23.056,64.522-17.433,7.923-39.829,11.968-66.648,12.02-13.433-23.481-28.079-41.188-43.582-52.694.272-.191.542-.4.815-.584a75.691,75.691,0,0,1,19.522-9.8,56.571,56.571,0,0,0,9.56,20.583M178.8,265.561a52.987,52.987,0,0,1,21.72-1.867c20.753,2.7,37.86,18.334,45.487,41.2-23.349,4.739-45.258-2.465-57.943-19.332a54.777,54.777,0,0,1-9.263-20m224.16-23.968c-.04-.561-.1-1.131-.154-1.7.507-.238,1.026-.468,1.524-.713A77.726,77.726,0,0,0,423,226.55a77.764,77.764,0,0,0,18.668,12.635c.5.245,1.018.475,1.525.713-.05.564-.114,1.134-.154,1.7A79.928,79.928,0,0,0,444.5,264.3a77.362,77.362,0,0,0-20.129,10.071c-.458.314-.913.656-1.371.981-.457-.326-.911-.667-1.37-.981A77.362,77.362,0,0,0,401.5,264.3a79.932,79.932,0,0,0,1.461-22.706m7.582-35.7c-8.067-19.57-3.267-42.405,12.455-60.536,15.723,18.13,20.523,40.965,12.456,60.536A54.461,54.461,0,0,1,423,224.024a54.471,54.471,0,0,1-12.455-18.134m34.309,35.834c.024-.333.064-.672.092-1.007,17.58,7.858,40.03,11.862,66.805,11.915,13.367,23.572,21.11,45.256,23.057,64.522-17.433,7.923-39.829,11.968-66.648,12.02-13.433-23.481-28.079-41.188-43.583-52.694.273-.191.543-.4.815-.584a75.719,75.719,0,0,1,19.522-9.8,56.556,56.556,0,0,0,9.561,20.583c13.154,17.491,35.839,24.944,59.955,19.977.6-.122,1.192-.246,1.79-.385-.182-.593-.374-1.179-.567-1.763-7.816-23.656-25.526-39.845-47.045-42.647a54.745,54.745,0,0,0-22.363,1.9,78.144,78.144,0,0,1-1.392-22.037M556.93,353.736c-.458-.326-.912-.667-1.371-.981a77.361,77.361,0,0,0-20.128-10.071,79.938,79.938,0,0,0,1.461-22.706c-.04-.561-.1-1.131-.154-1.7.508-.238,1.026-.467,1.525-.713a77.761,77.761,0,0,0,18.668-12.635A77.725,77.725,0,0,0,575.6,317.57c.5.245,1.017.475,1.524.713-.05.564-.114,1.134-.154,1.7a79.935,79.935,0,0,0,1.461,22.706A77.343,77.343,0,0,0,558.3,352.754c-.458.314-.914.656-1.371.981M511.77,407.559c-26.819-.052-49.215-4.1-66.648-12.02,1.948-19.266,9.691-40.95,23.057-64.522,26.776-.053,49.225-4.058,66.806-11.915.026.335.067.674.091,1.007a78.142,78.142,0,0,1-1.392,22.037,54.745,54.745,0,0,0-22.363-1.9c-21.519,2.8-39.229,18.991-47.044,42.647-.194.585-.386,1.17-.568,1.763.6.138,1.194.263,1.79.384,24.117,4.967,46.8-2.486,59.955-19.977a56.557,56.557,0,0,0,9.561-20.583,75.72,75.72,0,0,1,19.522,9.8c.273.188.542.393.814.584-15.5,11.506-30.149,29.213-43.582,52.694M423,380.794a54.472,54.472,0,0,1-12.455-18.134c-8.067-19.571-3.267-42.406,12.455-60.536,15.723,18.129,20.523,40.965,12.456,60.536A54.461,54.461,0,0,1,423,380.794m14.135-17.423c8.365-20.294,3.39-43.935-12.911-62.625-.4-.462-.807-.923-1.224-1.379-.417.456-.82.917-1.223,1.379-16.3,18.69-21.277,42.332-12.911,62.625a56.257,56.257,0,0,0,12.8,18.684,76.024,76.024,0,0,1-18.13,12.24c-.3.146-.608.28-.906.424-2.079-19.364-9.882-41.075-23.224-64.61,13.453-23.519,28.106-41.159,43.591-52.5,15.486,11.344,30.139,28.983,43.592,52.5-13.342,23.535-21.146,45.246-23.224,64.61-.3-.144-.609-.279-.905-.424a76.013,76.013,0,0,1-18.131-12.24,56.256,56.256,0,0,0,12.8-18.684m-102.9,44.187c-13.434-23.481-28.08-41.188-43.583-52.694.272-.191.542-.4.815-.584a75.706,75.706,0,0,1,19.522-9.8,56.571,56.571,0,0,0,9.56,20.583c13.155,17.491,35.839,24.944,59.955,19.977.6-.122,1.193-.246,1.79-.384-.181-.593-.374-1.179-.567-1.763-7.816-23.656-25.525-39.845-47.044-42.647a54.748,54.748,0,0,0-22.364,1.9,78.148,78.148,0,0,1-1.391-22.037c.024-.333.064-.672.091-1.007,17.581,7.857,40.031,11.862,66.806,11.915,13.366,23.572,21.109,45.256,23.057,64.522-17.433,7.923-39.829,11.968-66.648,12.02m-65.2-87.581c-.04-.561-.1-1.131-.153-1.7.507-.238,1.025-.467,1.524-.713a77.762,77.762,0,0,0,18.668-12.635,77.763,77.763,0,0,0,18.668,12.635c.5.245,1.017.475,1.524.713-.05.564-.113,1.134-.153,1.7a79.9,79.9,0,0,0,1.46,22.706,77.372,77.372,0,0,0-20.128,10.071c-.458.314-.914.656-1.371.981-.458-.326-.912-.667-1.371-.981a77.373,77.373,0,0,0-20.128-10.071,79.97,79.97,0,0,0,1.46-22.706m7.582-35.7c-8.067-19.57-3.267-42.406,12.456-60.535C304.8,241.869,309.6,264.7,301.53,284.275a54.444,54.444,0,0,1-12.455,18.134,54.461,54.461,0,0,1-12.456-18.134m36.113,59.67a52.988,52.988,0,0,1,21.72-1.867c20.753,2.7,37.86,18.334,45.487,41.2-23.349,4.739-45.257-2.465-57.943-19.333a54.776,54.776,0,0,1-9.263-20m220.542,0a54.763,54.763,0,0,1-9.264,20c-12.685,16.868-34.593,24.072-57.943,19.333,7.627-22.868,24.735-38.5,45.488-41.2a52.99,52.99,0,0,1,21.72,1.867m11.2-59.67c-8.067-19.57-3.267-42.406,12.456-60.535,15.722,18.129,20.522,40.965,12.455,60.535a54.469,54.469,0,0,1-12.455,18.134,54.459,54.459,0,0,1-12.456-18.134m32.823,32.06c-.3-.144-.609-.278-.905-.424a76.034,76.034,0,0,1-18.131-12.24,56.256,56.256,0,0,0,12.8-18.684c8.365-20.293,3.39-43.935-12.911-62.625-.4-.462-.806-.923-1.223-1.379-.417.456-.821.917-1.224,1.379-16.3,18.69-21.277,42.332-12.911,62.625a56.255,56.255,0,0,0,12.8,18.684,76.027,76.027,0,0,1-18.13,12.24c-.3.146-.607.28-.906.424-2.079-19.364-9.882-41.075-23.224-64.609,13.453-23.52,28.105-41.16,43.592-52.5,15.485,11.344,30.138,28.983,43.592,52.5-13.343,23.534-21.146,45.245-23.225,64.609M446.658,265.561a52.988,52.988,0,0,1,21.719-1.867c20.752,2.7,37.861,18.334,45.488,41.2-23.35,4.739-45.258-2.465-57.943-19.332a54.777,54.777,0,0,1-9.264-20m-69.263-3.7c-21.52,2.8-39.229,18.991-47.045,42.647-.193.585-.385,1.17-.567,1.763.6.138,1.194.263,1.79.385,24.117,4.967,46.8-2.486,59.955-19.977a56.556,56.556,0,0,0,9.561-20.583,75.718,75.718,0,0,1,19.522,9.8c.272.188.542.393.815.584-15.5,11.506-30.15,29.213-43.583,52.694-26.82-.052-49.216-4.1-66.648-12.02,1.947-19.266,9.69-40.95,23.056-64.522,26.776-.053,49.226-4.057,66.806-11.915.027.335.068.674.092,1.007a78.146,78.146,0,0,1-1.392,22.037,54.745,54.745,0,0,0-22.363-1.9m21.952,3.7a54.778,54.778,0,0,1-9.264,20C377.4,302.43,355.489,309.634,332.139,304.9c7.627-22.868,24.735-38.5,45.488-41.2a52.988,52.988,0,0,1,21.72,1.867m-89.9,50.774c-.3-.144-.609-.278-.906-.424a76.032,76.032,0,0,1-18.131-12.24,56.259,56.259,0,0,0,12.8-18.684c8.365-20.293,3.389-43.935-12.911-62.625-.4-.462-.807-.923-1.224-1.379-.417.456-.821.917-1.224,1.379-16.3,18.69-21.276,42.332-12.911,62.625a56.27,56.27,0,0,0,12.8,18.684,76.007,76.007,0,0,1-18.13,12.24c-.3.146-.607.28-.906.424-2.078-19.364-9.882-41.075-23.224-64.609,13.454-23.52,28.106-41.16,43.592-52.5,15.486,11.344,30.138,28.983,43.592,52.5-13.343,23.534-21.146,45.245-23.224,64.609M200.325,331.017c26.776-.053,49.225-4.058,66.806-11.915.027.335.067.674.091,1.007a78.144,78.144,0,0,1-1.391,22.037,54.749,54.749,0,0,0-22.364-1.9c-21.519,2.8-39.228,18.991-47.044,42.647-.194.585-.386,1.17-.567,1.763.6.138,1.193.263,1.79.384,24.117,4.967,46.8-2.486,59.955-19.977a56.572,56.572,0,0,0,9.56-20.583,75.706,75.706,0,0,1,19.522,9.8c.273.188.543.393.815.584-15.5,11.506-30.15,29.213-43.583,52.694-26.819-.052-49.215-4.1-66.647-12.02,1.947-19.266,9.69-40.95,23.056-64.522m65.094,12.929a54.764,54.764,0,0,1-9.264,20c-12.685,16.868-34.593,24.072-57.942,19.333,7.626-22.868,24.734-38.5,45.487-41.2a52.988,52.988,0,0,1,21.72,1.867m133.928,78.385a54.778,54.778,0,0,1-9.264,20C377.4,459.2,355.489,466.4,332.139,461.666c7.627-22.868,24.735-38.5,45.488-41.2a52.99,52.99,0,0,1,21.72,1.867m2.157-1.262a79.934,79.934,0,0,0,1.461-22.706c-.04-.561-.1-1.131-.154-1.695.507-.238,1.026-.468,1.524-.713A77.727,77.727,0,0,0,423,383.32a77.765,77.765,0,0,0,18.668,12.635c.5.245,1.018.475,1.525.713-.05.564-.114,1.134-.154,1.695a79.93,79.93,0,0,0,1.461,22.706,77.362,77.362,0,0,0-20.129,10.071c-.458.314-.913.656-1.371.981-.457-.325-.911-.667-1.37-.981A77.362,77.362,0,0,0,401.5,421.068m45.155,1.262a52.989,52.989,0,0,1,21.719-1.867c20.752,2.7,37.861,18.334,45.488,41.2-23.35,4.739-45.258-2.465-57.943-19.333a54.777,54.777,0,0,1-9.264-20m155.43-14.772c-13.433-23.481-28.079-41.188-43.582-52.694.272-.191.542-.4.815-.584a75.7,75.7,0,0,1,19.521-9.8,56.572,56.572,0,0,0,9.561,20.583c13.154,17.491,35.839,24.944,59.956,19.977.6-.122,1.192-.246,1.789-.384-.181-.593-.374-1.179-.567-1.763-7.816-23.656-25.525-39.845-47.045-42.647a54.746,54.746,0,0,0-22.363,1.9,78.15,78.15,0,0,1-1.391-22.037c.023-.333.064-.672.091-1.007,17.58,7.857,40.03,11.862,66.806,11.915,13.366,23.572,21.108,45.256,23.056,64.522-17.433,7.923-39.829,11.968-66.648,12.02m-21.5-63.613a52.99,52.99,0,0,1,21.72-1.867c20.753,2.7,37.862,18.334,45.488,41.2-23.35,4.739-45.258-2.465-57.943-19.333a54.78,54.78,0,0,1-9.264-20m0-156.77a53.006,53.006,0,0,1,21.72-1.867c20.753,2.7,37.862,18.334,45.488,41.2-23.35,4.739-45.258-2.465-57.943-19.333a54.78,54.78,0,0,1-9.264-20m-69.263-3.7c-21.519,2.8-39.229,18.991-47.044,42.647-.194.585-.386,1.17-.568,1.763.6.138,1.194.263,1.79.385,24.117,4.967,46.8-2.486,59.955-19.977a56.556,56.556,0,0,0,9.561-20.583,75.72,75.72,0,0,1,19.522,9.8c.273.188.542.393.814.584-15.5,11.506-30.149,29.213-43.582,52.694-26.819-.052-49.215-4.1-66.648-12.02,1.948-19.266,9.691-40.95,23.057-64.522,26.776-.053,49.225-4.057,66.806-11.915.026.335.067.675.091,1.007a78.142,78.142,0,0,1-1.392,22.037,54.746,54.746,0,0,0-22.363-1.9m21.952,3.7a54.763,54.763,0,0,1-9.264,20c-12.685,16.868-34.593,24.072-57.943,19.333,7.627-22.868,24.735-38.5,45.488-41.2a53.005,53.005,0,0,1,21.72,1.867m-89.9,50.774c-.3-.144-.609-.279-.905-.424a76.012,76.012,0,0,1-18.131-12.24,56.257,56.257,0,0,0,12.8-18.684c8.365-20.293,3.39-43.935-12.911-62.625-.4-.462-.807-.923-1.224-1.379-.417.456-.82.917-1.223,1.379-16.3,18.69-21.277,42.332-12.911,62.625a56.258,56.258,0,0,0,12.8,18.684,76.024,76.024,0,0,1-18.13,12.24c-.3.146-.608.28-.906.424-2.079-19.364-9.882-41.076-23.224-64.61,13.453-23.519,28.106-41.159,43.591-52.5,15.486,11.344,30.139,28.983,43.592,52.5-13.342,23.534-21.146,45.246-23.224,64.61M312.731,187.175a53,53,0,0,1,21.72-1.867c20.753,2.7,37.86,18.334,45.487,41.2-23.349,4.739-45.257-2.465-57.943-19.333a54.776,54.776,0,0,1-9.263-20m-69.264-3.7c-21.519,2.8-39.228,18.991-47.044,42.647-.194.585-.386,1.17-.567,1.763.6.138,1.193.263,1.79.385,24.117,4.967,46.8-2.486,59.955-19.977a56.571,56.571,0,0,0,9.56-20.583,75.706,75.706,0,0,1,19.522,9.8c.273.188.543.393.815.584-15.5,11.506-30.15,29.213-43.583,52.694-26.819-.052-49.215-4.1-66.647-12.02,1.947-19.266,9.69-40.95,23.056-64.522,26.776-.053,49.225-4.057,66.806-11.915.027.335.067.675.091,1.007a78.143,78.143,0,0,1-1.391,22.037,54.75,54.75,0,0,0-22.364-1.9m21.951,3.7a54.764,54.764,0,0,1-9.264,20c-12.685,16.868-34.593,24.072-57.942,19.333,7.626-22.868,24.734-38.5,45.487-41.2a53,53,0,0,1,21.72,1.867m-89.9,50.774c-.3-.144-.609-.279-.905-.424a76.029,76.029,0,0,1-18.131-12.24,56.243,56.243,0,0,0,12.8-18.684c8.365-20.293,3.39-43.935-12.91-62.625-.4-.462-.807-.923-1.224-1.379-.417.456-.821.917-1.224,1.379-16.3,18.69-21.277,42.332-12.911,62.625a56.257,56.257,0,0,0,12.8,18.684,76.006,76.006,0,0,1-18.13,12.24c-.3.146-.607.28-.906.424-2.079-19.364-9.882-41.076-23.224-64.61,13.453-23.519,28.105-41.159,43.592-52.5,15.486,11.344,30.138,28.983,43.592,52.5-13.343,23.534-21.146,45.246-23.225,64.61m-20.367-13.926a54.46,54.46,0,0,1-12.456-18.134c-8.067-19.57-3.267-42.405,12.456-60.536,15.723,18.13,20.522,40.965,12.455,60.536a54.444,54.444,0,0,1-12.455,18.134m-20.038,17.568c-.04-.561-.1-1.131-.153-1.7.507-.238,1.025-.468,1.524-.713a77.763,77.763,0,0,0,18.668-12.635,77.763,77.763,0,0,0,18.668,12.635c.5.245,1.017.475,1.524.713-.05.564-.113,1.134-.153,1.7a79.9,79.9,0,0,0,1.46,22.706,77.357,77.357,0,0,0-20.128,10.071c-.458.314-.914.656-1.371.981-.458-.326-.912-.667-1.371-.981A77.371,77.371,0,0,0,133.649,264.3a79.966,79.966,0,0,0,1.46-22.706m63.63,88.518c-13.343,23.535-21.146,45.246-23.225,64.61-.3-.144-.609-.279-.905-.424a76.029,76.029,0,0,1-18.131-12.24,56.242,56.242,0,0,0,12.8-18.684c8.365-20.294,3.39-43.935-12.91-62.625-.4-.462-.807-.923-1.224-1.379-.417.456-.821.917-1.224,1.379-16.3,18.69-21.277,42.332-12.911,62.625a56.255,56.255,0,0,0,12.8,18.684,76.006,76.006,0,0,1-18.13,12.24c-.3.146-.607.28-.906.424-2.079-19.364-9.882-41.075-23.224-64.61,13.453-23.519,28.105-41.159,43.592-52.5,15.486,11.344,30.138,28.983,43.592,52.5m-43.592,50.684a54.46,54.46,0,0,1-12.456-18.134c-8.067-19.571-3.267-42.406,12.456-60.536,15.723,18.129,20.522,40.965,12.455,60.536a54.444,54.444,0,0,1-12.455,18.134m-20.038,17.568c-.04-.561-.1-1.131-.153-1.695.507-.238,1.025-.468,1.524-.713a77.764,77.764,0,0,0,18.668-12.635,77.764,77.764,0,0,0,18.668,12.635c.5.245,1.017.475,1.524.713-.05.564-.113,1.134-.153,1.695a79.9,79.9,0,0,0,1.46,22.706,77.357,77.357,0,0,0-20.128,10.071c-.458.314-.914.656-1.371.981-.458-.325-.912-.667-1.371-.981a77.371,77.371,0,0,0-20.128-10.071,79.968,79.968,0,0,0,1.46-22.706M265.419,500.716a54.764,54.764,0,0,1-9.264,20c-12.685,16.868-34.593,24.072-57.942,19.333,7.626-22.868,24.734-38.5,45.487-41.2a52.989,52.989,0,0,1,21.72,1.867m2.158-1.263a79.969,79.969,0,0,0,1.46-22.706c-.04-.561-.1-1.13-.153-1.695.507-.238,1.025-.468,1.524-.713a77.741,77.741,0,0,0,18.668-12.635,77.741,77.741,0,0,0,18.668,12.635c.5.245,1.017.475,1.524.713-.05.564-.113,1.134-.153,1.695a79.9,79.9,0,0,0,1.46,22.706,77.379,77.379,0,0,0-20.128,10.071c-.458.314-.914.656-1.371.981-.458-.326-.912-.667-1.371-.981a77.38,77.38,0,0,0-20.128-10.071m45.155,1.263a52.989,52.989,0,0,1,21.72-1.867c20.753,2.7,37.86,18.334,45.487,41.2-23.349,4.739-45.257-2.465-57.943-19.333a54.775,54.775,0,0,1-9.263-20m220.542,0a54.763,54.763,0,0,1-9.264,20c-12.685,16.868-34.593,24.072-57.943,19.333,7.627-22.868,24.735-38.5,45.488-41.2a52.99,52.99,0,0,1,21.72,1.867m2.157-1.263a79.937,79.937,0,0,0,1.461-22.706c-.04-.561-.1-1.13-.154-1.695.508-.238,1.026-.468,1.525-.713a77.74,77.74,0,0,0,18.668-12.635A77.7,77.7,0,0,0,575.6,474.34c.5.245,1.017.475,1.524.713-.05.564-.114,1.134-.154,1.695a79.935,79.935,0,0,0,1.461,22.706A77.35,77.35,0,0,0,558.3,509.525c-.458.314-.914.656-1.371.981-.458-.326-.912-.667-1.371-.981a77.368,77.368,0,0,0-20.128-10.071m45.155,1.263a52.991,52.991,0,0,1,21.72-1.867c20.753,2.7,37.862,18.334,45.488,41.2-23.35,4.739-45.258-2.465-57.943-19.333a54.78,54.78,0,0,1-9.264-20M678.4,362.661c-8.067-19.571-3.268-42.406,12.455-60.536,15.722,18.129,20.523,40.965,12.456,60.536a54.459,54.459,0,0,1-12.456,18.134A54.455,54.455,0,0,1,678.4,362.661m32.823,32.059c-.3-.144-.61-.279-.906-.424a76.029,76.029,0,0,1-18.131-12.24,56.24,56.24,0,0,0,12.8-18.684c8.366-20.294,3.39-43.935-12.91-62.625-.4-.462-.807-.923-1.224-1.379-.417.456-.821.917-1.224,1.379-16.3,18.69-21.276,42.332-12.911,62.625a56.27,56.27,0,0,0,12.8,18.684,76,76,0,0,1-18.13,12.24c-.3.146-.607.28-.906.424-2.079-19.364-9.882-41.075-23.225-64.61,13.454-23.519,28.107-41.159,43.593-52.5,15.486,11.344,30.138,28.983,43.591,52.5-13.341,23.535-21.146,45.246-23.223,64.61M678.4,205.89c-8.067-19.57-3.268-42.405,12.455-60.536,15.722,18.13,20.523,40.965,12.456,60.536a54.459,54.459,0,0,1-12.456,18.134A54.455,54.455,0,0,1,678.4,205.89m32.823,32.06c-.3-.144-.61-.279-.906-.424a76.029,76.029,0,0,1-18.131-12.24,56.241,56.241,0,0,0,12.8-18.684c8.366-20.293,3.39-43.935-12.91-62.625-.4-.462-.807-.923-1.224-1.379-.417.456-.821.917-1.224,1.379-16.3,18.69-21.276,42.332-12.911,62.625a56.271,56.271,0,0,0,12.8,18.684,76,76,0,0,1-18.13,12.24c-.3.146-.607.28-.906.424-2.079-19.364-9.882-41.076-23.225-64.61,13.454-23.519,28.107-41.159,43.593-52.5,15.486,11.344,30.138,28.983,43.591,52.5-13.341,23.534-21.146,45.246-23.223,64.61M669,84.954a78.109,78.109,0,0,1-1.392,22.037,54.743,54.743,0,0,0-22.363-1.9c-21.52,2.8-39.228,18.991-47.044,42.647-.193.585-.386,1.17-.567,1.763.6.138,1.194.263,1.79.385,24.117,4.967,46.8-2.486,59.955-19.977a56.572,56.572,0,0,0,9.56-20.583,75.679,75.679,0,0,1,19.522,9.8c.273.187.543.392.815.583-15.5,11.506-30.149,29.213-43.582,52.694-26.82-.052-49.216-4.1-66.649-12.02,1.948-19.266,9.69-40.949,23.057-64.522,26.776-.053,49.225-4.057,66.805-11.915.027.335.067.675.092,1.007m-1.8,23.836a54.769,54.769,0,0,1-9.263,20c-12.686,16.868-34.594,24.072-57.943,19.333,7.627-22.868,24.734-38.5,45.487-41.2a53.006,53.006,0,0,1,21.72,1.867M559.321,40.741a75.674,75.674,0,0,1,19.521-9.8A56.572,56.572,0,0,0,588.4,51.526C601.557,69.017,624.241,76.47,648.359,71.5c.6-.122,1.192-.246,1.789-.385-.181-.593-.374-1.179-.567-1.763-7.816-23.656-25.525-39.845-47.045-42.647a54.746,54.746,0,0,0-22.363,1.9,78.15,78.15,0,0,1-1.391-22.037c.023-.332.064-.672.091-1.007,17.58,7.858,40.03,11.862,66.806,11.915C659.046,41.049,666.788,62.732,668.736,82c-17.433,7.923-39.829,11.968-66.648,12.02-13.433-23.481-28.079-41.188-43.582-52.694.272-.191.542-.4.815-.583m21.264-10.336a53.006,53.006,0,0,1,21.72-1.867c20.753,2.7,37.862,18.334,45.488,41.2-23.35,4.739-45.258-2.465-57.943-19.333a54.773,54.773,0,0,1-9.264-20m19.937,64.55c-13.343,23.535-21.146,45.246-23.225,64.61-.3-.144-.609-.279-.905-.424A76.032,76.032,0,0,1,558.26,146.9a56.256,56.256,0,0,0,12.8-18.684c8.365-20.293,3.39-43.935-12.911-62.625-.4-.462-.806-.923-1.223-1.379-.417.456-.821.917-1.224,1.379-16.3,18.69-21.277,42.332-12.911,62.625A56.255,56.255,0,0,0,555.6,146.9a76.025,76.025,0,0,1-18.13,12.24c-.3.146-.607.28-.906.424-2.079-19.364-9.882-41.075-23.224-64.61,13.453-23.519,28.105-41.159,43.592-52.5,15.485,11.344,30.138,28.983,43.592,52.5M468.179,17.476c26.776-.053,49.225-4.057,66.806-11.915.026.335.067.675.091,1.007a78.143,78.143,0,0,1-1.392,22.037,54.746,54.746,0,0,0-22.363-1.9c-21.519,2.8-39.229,18.991-47.044,42.647-.194.585-.386,1.17-.568,1.763.6.138,1.194.263,1.79.385,24.117,4.967,46.8-2.486,59.955-19.977a56.556,56.556,0,0,0,9.561-20.583,75.693,75.693,0,0,1,19.522,9.8c.273.187.542.392.814.583C539.849,52.83,525.2,70.536,511.77,94.018c-26.819-.052-49.215-4.1-66.648-12.02,1.948-19.266,9.691-40.949,23.057-64.522m65.094,12.929a54.756,54.756,0,0,1-9.264,20c-12.685,16.868-34.593,24.072-57.943,19.333,7.627-22.868,24.735-38.5,45.488-41.2a53.005,53.005,0,0,1,21.72,1.867M444.855,84.954c.024-.332.064-.672.092-1.007,17.58,7.858,40.03,11.862,66.805,11.915,13.367,23.573,21.11,45.256,23.057,64.522-17.433,7.923-39.829,11.968-66.648,12.02-13.433-23.481-28.079-41.188-43.583-52.694.273-.191.543-.4.815-.583a75.692,75.692,0,0,1,19.522-9.8,56.556,56.556,0,0,0,9.561,20.583c13.154,17.491,35.839,24.944,59.955,19.977.6-.122,1.192-.246,1.79-.385-.182-.593-.374-1.179-.567-1.763-7.816-23.656-25.526-39.845-47.045-42.647a54.745,54.745,0,0,0-22.363,1.9,78.144,78.144,0,0,1-1.392-22.037m1.8,23.836a53.005,53.005,0,0,1,21.719-1.867c20.752,2.7,37.861,18.334,45.488,41.2-23.35,4.739-45.258-2.465-57.943-19.333a54.77,54.77,0,0,1-9.264-20M402.964,84.822c-.04-.561-.1-1.131-.154-1.695.507-.238,1.026-.468,1.524-.713A77.7,77.7,0,0,0,423,69.779a77.738,77.738,0,0,0,18.668,12.635c.5.245,1.018.475,1.525.713-.05.564-.114,1.134-.154,1.695a79.93,79.93,0,0,0,1.461,22.706A77.362,77.362,0,0,0,424.373,117.6c-.458.314-.913.656-1.371.981-.457-.326-.911-.667-1.37-.981A77.362,77.362,0,0,0,401.5,107.528a79.935,79.935,0,0,0,1.461-22.706m-1.815.132a78.146,78.146,0,0,1-1.392,22.037,54.746,54.746,0,0,0-22.363-1.9c-21.52,2.8-39.229,18.991-47.045,42.647-.193.585-.385,1.17-.567,1.763.6.138,1.194.263,1.79.385,24.117,4.967,46.8-2.486,59.955-19.977a56.556,56.556,0,0,0,9.561-20.583,75.691,75.691,0,0,1,19.522,9.8c.272.187.542.392.815.583-15.5,11.506-30.15,29.213-43.583,52.694-26.82-.052-49.216-4.1-66.648-12.02,1.947-19.266,9.69-40.949,23.056-64.522,26.776-.053,49.226-4.057,66.806-11.915.027.335.068.675.092,1.007m-1.8,23.836a54.771,54.771,0,0,1-9.264,20c-12.686,16.868-34.593,24.072-57.943,19.333,7.627-22.868,24.735-38.5,45.488-41.2a53.006,53.006,0,0,1,21.72,1.867M291.466,40.741a75.679,75.679,0,0,1,19.522-9.8,56.571,56.571,0,0,0,9.56,20.583C333.7,69.017,356.387,76.47,380.5,71.5c.6-.122,1.193-.246,1.79-.385-.181-.593-.374-1.179-.567-1.763C373.911,45.7,356.2,29.511,334.683,26.708a54.749,54.749,0,0,0-22.364,1.9,78.148,78.148,0,0,1-1.391-22.037c.024-.332.064-.672.091-1.007C328.6,13.42,351.05,17.424,377.825,17.476,391.191,41.049,398.934,62.732,400.882,82c-17.433,7.923-39.829,11.968-66.648,12.02C320.8,70.536,306.154,52.83,290.651,41.324c.272-.191.542-.4.815-.583m21.265-10.336a53,53,0,0,1,21.72-1.867c20.753,2.7,37.86,18.334,45.487,41.2-23.349,4.739-45.257-2.465-57.943-19.333a54.769,54.769,0,0,1-9.263-20m19.936,64.55c-13.343,23.535-21.146,45.246-23.224,64.61-.3-.144-.609-.279-.906-.424a76.03,76.03,0,0,1-18.131-12.24,56.258,56.258,0,0,0,12.8-18.684c8.365-20.293,3.389-43.935-12.911-62.625-.4-.462-.807-.923-1.224-1.379-.417.456-.821.917-1.224,1.379-16.3,18.69-21.276,42.332-12.911,62.625a56.27,56.27,0,0,0,12.8,18.684,76,76,0,0,1-18.13,12.24c-.3.146-.607.28-.906.424-2.078-19.364-9.882-41.075-23.224-64.61,13.454-23.519,28.106-41.159,43.592-52.5,15.486,11.344,30.138,28.983,43.592,52.5M200.325,17.476c26.776-.053,49.225-4.057,66.806-11.915.027.335.067.675.091,1.007a78.144,78.144,0,0,1-1.391,22.037,54.75,54.75,0,0,0-22.364-1.9c-21.519,2.8-39.228,18.991-47.044,42.647-.194.585-.386,1.17-.567,1.763.6.138,1.193.263,1.79.385,24.117,4.967,46.8-2.486,59.955-19.977a56.571,56.571,0,0,0,9.56-20.583,75.679,75.679,0,0,1,19.522,9.8c.273.187.543.392.815.583-15.5,11.506-30.15,29.213-43.583,52.694C217.1,93.966,194.7,89.922,177.269,82c1.947-19.266,9.69-40.949,23.056-64.522m65.094,12.929a54.757,54.757,0,0,1-9.264,20C243.47,67.275,221.561,74.479,198.212,69.74c7.626-22.868,24.734-38.5,45.487-41.2a53,53,0,0,1,21.72,1.867M177,84.954c.024-.332.064-.672.091-1.007,17.58,7.858,40.03,11.862,66.806,11.915,13.366,23.573,21.109,45.256,23.056,64.522-17.433,7.923-39.829,11.968-66.648,12.02-13.433-23.481-28.079-41.188-43.582-52.694.272-.191.542-.4.815-.583a75.664,75.664,0,0,1,19.522-9.8,56.571,56.571,0,0,0,9.56,20.583c13.154,17.491,35.839,24.944,59.955,19.977.6-.122,1.193-.246,1.79-.385-.181-.593-.374-1.179-.567-1.763-7.816-23.656-25.525-39.845-47.045-42.647a54.746,54.746,0,0,0-22.363,1.9A78.146,78.146,0,0,1,177,84.954m1.8,23.836a53,53,0,0,1,21.72-1.867c20.753,2.7,37.86,18.334,45.487,41.2-23.349,4.739-45.258-2.465-57.943-19.333a54.769,54.769,0,0,1-9.263-20M135.109,84.822c-.04-.561-.1-1.131-.153-1.695.507-.238,1.025-.468,1.524-.713a77.737,77.737,0,0,0,18.668-12.635,77.737,77.737,0,0,0,18.668,12.635c.5.245,1.017.475,1.524.713-.05.564-.113,1.134-.153,1.695a79.9,79.9,0,0,0,1.46,22.706A77.357,77.357,0,0,0,156.519,117.6c-.458.314-.914.656-1.371.981-.458-.326-.912-.667-1.371-.981a77.371,77.371,0,0,0-20.128-10.071,79.968,79.968,0,0,0,1.46-22.706M22.8,41.324c.272-.191.542-.4.815-.583a75.673,75.673,0,0,1,19.521-9.8,56.587,56.587,0,0,0,9.561,20.583C65.848,69.017,88.533,76.47,112.649,71.5c.6-.122,1.193-.246,1.79-.385-.181-.593-.374-1.179-.567-1.763C106.057,45.7,88.348,29.511,66.828,26.708a54.746,54.746,0,0,0-22.363,1.9A78.146,78.146,0,0,1,43.074,6.569c.024-.332.064-.672.091-1.007,17.58,7.858,40.03,11.862,66.806,11.915C123.337,41.049,131.081,62.732,133.027,82,115.594,89.922,93.2,93.966,66.379,94.018,52.946,70.536,38.3,52.83,22.8,41.324m22.08-10.919A53,53,0,0,1,66.6,28.538c20.753,2.7,37.861,18.334,45.488,41.2-23.35,4.739-45.258-2.465-57.943-19.333a54.755,54.755,0,0,1-9.263-20M66.4,95.861c26.776-.053,49.226-4.057,66.806-11.915.026.335.067.675.091,1.007a78.145,78.145,0,0,1-1.391,22.037,54.75,54.75,0,0,0-22.364-1.9C88.021,107.9,70.312,124.085,62.5,147.74c-.194.585-.386,1.17-.567,1.763.6.138,1.194.263,1.789.385,24.117,4.967,46.8-2.486,59.956-19.977a56.57,56.57,0,0,0,9.56-20.583,75.678,75.678,0,0,1,19.522,9.8c.273.187.543.392.814.583-15.5,11.506-30.149,29.213-43.582,52.694-26.819-.052-49.215-4.1-66.647-12.02,1.947-19.266,9.69-40.949,23.056-64.522m65.094,12.929a54.756,54.756,0,0,1-9.264,20c-12.685,16.868-34.593,24.072-57.942,19.333,7.626-22.868,24.734-38.5,45.487-41.2a53.006,53.006,0,0,1,21.72,1.867M22.8,198.094c.272-.191.542-.4.815-.584a75.7,75.7,0,0,1,19.521-9.8A56.587,56.587,0,0,0,52.694,208.3c13.154,17.491,35.839,24.944,59.955,19.977.6-.122,1.193-.246,1.79-.385-.181-.593-.374-1.179-.567-1.763-7.816-23.656-25.525-39.845-47.045-42.647a54.746,54.746,0,0,0-22.363,1.9,78.146,78.146,0,0,1-1.391-22.037c.024-.332.064-.672.091-1.007,17.58,7.858,40.03,11.862,66.806,11.915,13.366,23.572,21.109,45.256,23.056,64.522-17.433,7.924-39.829,11.968-66.648,12.02C52.946,227.307,38.3,209.6,22.8,198.094m22.08-10.919A53,53,0,0,1,66.6,185.308c20.753,2.7,37.861,18.334,45.488,41.2-23.35,4.739-45.258-2.465-57.943-19.333a54.762,54.762,0,0,1-9.263-20M66.4,252.632c26.776-.053,49.226-4.057,66.806-11.915.026.335.067.674.091,1.007a78.145,78.145,0,0,1-1.391,22.037,54.749,54.749,0,0,0-22.364-1.9c-21.519,2.8-39.228,18.991-47.044,42.647-.194.585-.386,1.17-.567,1.763.6.138,1.194.263,1.789.385,24.117,4.967,46.8-2.486,59.956-19.977a56.571,56.571,0,0,0,9.56-20.583,75.7,75.7,0,0,1,19.522,9.8c.273.188.543.393.814.584-15.5,11.506-30.149,29.213-43.582,52.694-26.819-.052-49.215-4.1-66.647-12.02,1.947-19.266,9.69-40.95,23.056-64.522m65.094,12.929a54.764,54.764,0,0,1-9.264,20C109.543,302.43,87.634,309.634,64.285,304.9c7.626-22.868,24.734-38.5,45.487-41.2a52.988,52.988,0,0,1,21.72,1.867M22.8,354.864c.272-.191.542-.4.815-.584a75.7,75.7,0,0,1,19.521-9.8,56.587,56.587,0,0,0,9.561,20.583c13.154,17.491,35.839,24.944,59.955,19.977.6-.122,1.193-.246,1.79-.384-.181-.593-.374-1.179-.567-1.763-7.816-23.656-25.525-39.845-47.045-42.647a54.745,54.745,0,0,0-22.363,1.9,78.146,78.146,0,0,1-1.391-22.037c.024-.333.064-.672.091-1.007,17.58,7.857,40.03,11.862,66.806,11.915,13.366,23.572,21.109,45.256,23.056,64.522-17.433,7.923-39.829,11.968-66.648,12.02C52.946,384.077,38.3,366.37,22.8,354.864m22.08-10.919A52.984,52.984,0,0,1,66.6,342.078c20.753,2.7,37.861,18.334,45.488,41.2-23.35,4.739-45.258-2.465-57.943-19.333a54.762,54.762,0,0,1-9.263-20M66.4,409.4c26.776-.053,49.226-4.058,66.806-11.915.026.335.067.674.091,1.007a78.145,78.145,0,0,1-1.391,22.037,54.753,54.753,0,0,0-22.364-1.9c-21.519,2.8-39.228,18.991-47.044,42.647-.194.585-.386,1.17-.567,1.763.6.138,1.194.263,1.789.385,24.117,4.967,46.8-2.486,59.956-19.977a56.57,56.57,0,0,0,9.56-20.583,75.7,75.7,0,0,1,19.522,9.8c.273.188.543.393.814.584-15.5,11.506-30.149,29.213-43.582,52.694-26.819-.052-49.215-4.1-66.647-12.02,1.947-19.266,9.69-40.949,23.056-64.522m65.094,12.929a54.763,54.763,0,0,1-9.264,20C109.543,459.2,87.634,466.4,64.285,461.666c7.626-22.868,24.734-38.5,45.487-41.2a52.99,52.99,0,0,1,21.72,1.867M22.8,511.635c.272-.191.542-.4.815-.583a75.673,75.673,0,0,1,19.521-9.8,56.588,56.588,0,0,0,9.561,20.583c13.154,17.491,35.839,24.944,59.955,19.977.6-.122,1.193-.246,1.79-.385-.181-.593-.374-1.179-.567-1.763-7.816-23.656-25.525-39.845-47.045-42.647a54.745,54.745,0,0,0-22.363,1.9,78.147,78.147,0,0,1-1.391-22.037c.024-.332.064-.672.091-1.007,17.58,7.858,40.03,11.862,66.806,11.915,13.366,23.573,21.109,45.256,23.056,64.522-17.433,7.923-39.829,11.968-66.648,12.02C52.946,540.847,38.3,523.141,22.8,511.635m22.08-10.919A52.985,52.985,0,0,1,66.6,498.849c20.753,2.7,37.861,18.334,45.488,41.2-23.35,4.739-45.258-2.465-57.943-19.333a54.762,54.762,0,0,1-9.263-20m65.111,142c-26.819-.052-49.215-4.1-66.647-12.02,1.947-19.266,9.69-40.949,23.056-64.522,26.776-.053,49.226-4.057,66.806-11.915.026.335.067.675.091,1.007A78.146,78.146,0,0,1,131.9,577.3a54.75,54.75,0,0,0-22.364-1.9c-21.519,2.8-39.228,18.991-47.044,42.647-.194.585-.386,1.17-.567,1.763.6.138,1.194.263,1.789.384,24.117,4.967,46.8-2.486,59.956-19.977a56.571,56.571,0,0,0,9.56-20.583,75.676,75.676,0,0,1,19.522,9.8c.273.187.543.392.814.583-15.5,11.506-30.149,29.213-43.582,52.694m21.5-63.613a54.764,54.764,0,0,1-9.264,20c-12.685,16.868-34.593,24.072-57.942,19.332,7.626-22.868,24.734-38.5,45.487-41.2a53.006,53.006,0,0,1,21.72,1.867m22.285,8.809a77.37,77.37,0,0,0-20.128-10.071,79.969,79.969,0,0,0,1.46-22.706c-.04-.561-.1-1.131-.153-1.695.507-.238,1.025-.468,1.524-.713a77.766,77.766,0,0,0,18.668-12.635,77.766,77.766,0,0,0,18.668,12.635c.5.245,1.017.475,1.524.713-.05.564-.113,1.134-.153,1.695a79.9,79.9,0,0,0,1.46,22.706,77.356,77.356,0,0,0-20.128,10.071c-.458.314-.914.656-1.371.981-.458-.326-.912-.667-1.371-.981m46.529,54.8c-13.433-23.481-28.079-41.188-43.582-52.694.272-.191.542-.4.815-.583a75.662,75.662,0,0,1,19.522-9.8,56.571,56.571,0,0,0,9.56,20.583c13.154,17.491,35.839,24.944,59.955,19.977.6-.122,1.193-.246,1.79-.384-.181-.593-.374-1.178-.567-1.763-7.816-23.656-25.525-39.845-47.045-42.647a54.746,54.746,0,0,0-22.363,1.9A78.147,78.147,0,0,1,177,555.265c.024-.332.064-.672.091-1.007,17.58,7.858,40.03,11.862,66.806,11.915,13.366,23.573,21.109,45.256,23.056,64.522-17.433,7.923-39.829,11.968-66.648,12.02M178.8,579.1a53,53,0,0,1,21.72-1.867c20.753,2.7,37.86,18.334,45.487,41.2-23.349,4.739-45.258-2.465-57.943-19.332a54.777,54.777,0,0,1-9.263-20m97.814,18.715c-8.067-19.57-3.267-42.406,12.456-60.536C304.8,555.41,309.6,578.246,301.53,597.816a54.445,54.445,0,0,1-12.455,18.134,54.461,54.461,0,0,1-12.456-18.134m32.824,32.06c-.3-.144-.609-.278-.906-.424a76.031,76.031,0,0,1-18.131-12.24,56.259,56.259,0,0,0,12.8-18.684c8.365-20.294,3.389-43.935-12.911-62.625-.4-.462-.807-.923-1.224-1.379-.417.456-.821.917-1.224,1.379-16.3,18.69-21.276,42.332-12.911,62.625a56.27,56.27,0,0,0,12.8,18.684,76.006,76.006,0,0,1-18.13,12.24c-.3.146-.607.28-.906.424-2.078-19.364-9.882-41.075-23.224-64.61,13.454-23.519,28.106-41.159,43.592-52.5,15.486,11.344,30.138,28.983,43.592,52.5-13.343,23.535-21.146,45.246-23.224,64.61m68.4,12.839c-26.82-.052-49.216-4.1-66.648-12.02,1.947-19.266,9.69-40.949,23.056-64.522,26.776-.053,49.226-4.057,66.806-11.915.027.335.068.675.092,1.007a78.147,78.147,0,0,1-1.392,22.037,54.746,54.746,0,0,0-22.363-1.9c-21.52,2.8-39.229,18.991-47.045,42.647-.193.585-.385,1.17-.567,1.763.6.138,1.194.263,1.79.384,24.117,4.967,46.8-2.486,59.955-19.977a56.556,56.556,0,0,0,9.561-20.583,75.689,75.689,0,0,1,19.522,9.8c.272.187.542.392.815.583-15.5,11.506-30.15,29.213-43.583,52.694m21.5-63.613a54.779,54.779,0,0,1-9.264,20c-12.686,16.868-34.593,24.072-57.943,19.332,7.627-22.868,24.735-38.5,45.488-41.2a53.006,53.006,0,0,1,21.72,1.867m22.285,8.809A77.361,77.361,0,0,0,401.5,577.839a79.935,79.935,0,0,0,1.461-22.706c-.04-.561-.1-1.131-.154-1.695.507-.238,1.026-.468,1.524-.713A77.73,77.73,0,0,0,423,540.09a77.767,77.767,0,0,0,18.668,12.635c.5.245,1.018.475,1.525.713-.05.564-.114,1.134-.154,1.695a79.93,79.93,0,0,0,1.461,22.706,77.361,77.361,0,0,0-20.129,10.071c-.458.314-.913.656-1.371.981-.457-.326-.911-.667-1.37-.981m46.529,54.8c-13.433-23.481-28.079-41.188-43.583-52.694.273-.191.543-.4.815-.583a75.69,75.69,0,0,1,19.522-9.8,56.556,56.556,0,0,0,9.561,20.583c13.154,17.491,35.839,24.944,59.955,19.977.6-.122,1.192-.246,1.79-.384-.182-.593-.374-1.178-.567-1.763-7.816-23.656-25.526-39.845-47.045-42.647a54.746,54.746,0,0,0-22.363,1.9,78.144,78.144,0,0,1-1.392-22.037c.024-.332.064-.672.092-1.007,17.58,7.858,40.03,11.862,66.805,11.915,13.367,23.573,21.11,45.256,23.057,64.522-17.433,7.923-39.829,11.968-66.648,12.02m-21.5-63.613a53.005,53.005,0,0,1,21.719-1.867c20.752,2.7,37.861,18.334,45.488,41.2-23.35,4.739-45.258-2.465-57.943-19.332a54.778,54.778,0,0,1-9.264-20m97.815,18.715c-8.067-19.57-3.267-42.406,12.456-60.536,15.722,18.129,20.522,40.965,12.455,60.536A54.47,54.47,0,0,1,556.93,615.95a54.46,54.46,0,0,1-12.456-18.134m32.823,32.06c-.3-.144-.609-.278-.905-.424a76.033,76.033,0,0,1-18.131-12.24,56.256,56.256,0,0,0,12.8-18.684c8.365-20.294,3.39-43.935-12.911-62.625-.4-.462-.806-.923-1.223-1.379-.417.456-.821.917-1.224,1.379-16.3,18.69-21.277,42.332-12.911,62.625a56.255,56.255,0,0,0,12.8,18.684,76.026,76.026,0,0,1-18.13,12.24c-.3.146-.607.28-.906.424-2.079-19.364-9.882-41.075-23.224-64.61,13.453-23.519,28.105-41.159,43.592-52.5,15.485,11.344,30.138,28.983,43.592,52.5-13.343,23.535-21.146,45.246-23.225,64.61m68.4,12.839c-26.82-.052-49.216-4.1-66.649-12.02,1.948-19.266,9.69-40.949,23.057-64.522,26.776-.053,49.225-4.057,66.805-11.915.027.335.067.675.092,1.007a78.109,78.109,0,0,1-1.392,22.037,54.743,54.743,0,0,0-22.363-1.9c-21.52,2.8-39.228,18.991-47.044,42.647-.193.585-.386,1.17-.567,1.763.6.138,1.194.263,1.79.384,24.117,4.967,46.8-2.486,59.955-19.977a56.572,56.572,0,0,0,9.56-20.583,75.677,75.677,0,0,1,19.522,9.8c.273.187.543.392.815.583-15.5,11.506-30.149,29.213-43.582,52.694M667.2,579.1a54.777,54.777,0,0,1-9.263,20c-12.686,16.868-34.594,24.072-57.943,19.332,7.627-22.868,24.734-38.5,45.487-41.2A53.006,53.006,0,0,1,667.2,579.1m22.285,8.809a77.36,77.36,0,0,0-20.128-10.071,79.907,79.907,0,0,0,1.461-22.706c-.04-.561-.1-1.131-.153-1.695.507-.238,1.025-.468,1.524-.713a77.766,77.766,0,0,0,18.668-12.635,77.767,77.767,0,0,0,18.667,12.635c.5.245,1.017.475,1.524.713-.05.564-.113,1.134-.153,1.695a79.937,79.937,0,0,0,1.46,22.706,77.357,77.357,0,0,0-20.128,10.071c-.458.314-.913.656-1.371.981-.458-.326-.912-.667-1.371-.981m113.177,42.784c-17.433,7.923-39.829,11.968-66.648,12.02-13.433-23.481-28.078-41.188-43.581-52.694.271-.191.541-.4.814-.583a75.662,75.662,0,0,1,19.522-9.8,56.57,56.57,0,0,0,9.56,20.583c13.155,17.491,35.839,24.944,59.955,19.977.6-.122,1.193-.246,1.79-.384-.181-.593-.373-1.178-.567-1.763-7.816-23.656-25.525-39.845-47.044-42.647a54.75,54.75,0,0,0-22.364,1.9,78.142,78.142,0,0,1-1.391-22.037c.024-.332.064-.672.091-1.007,17.581,7.858,40.031,11.862,66.807,11.915,13.366,23.573,21.108,45.256,23.055,64.522M714.513,579.1a53,53,0,0,1,21.719-1.867c20.753,2.7,37.86,18.334,45.487,41.2-23.349,4.739-45.258-2.465-57.942-19.332a54.747,54.747,0,0,1-9.264-20M802.93,476.88a78.117,78.117,0,0,1-1.391,22.037,54.745,54.745,0,0,0-22.363-1.9c-21.519,2.8-39.229,18.991-47.045,42.647-.193.585-.386,1.17-.567,1.763.6.138,1.194.263,1.79.385,24.118,4.967,46.8-2.486,59.955-19.977a56.574,56.574,0,0,0,9.561-20.583,75.674,75.674,0,0,1,19.521,9.8c.273.187.543.392.815.584-15.5,11.505-30.149,29.212-43.582,52.693-26.82-.052-49.216-4.1-66.648-12.02,1.947-19.266,9.69-40.949,23.055-64.522,26.776-.053,49.227-4.057,66.807-11.915.027.335.067.675.091,1.007m-1.8,23.836a54.763,54.763,0,0,1-9.264,20c-12.685,16.868-34.594,24.072-57.943,19.333,7.627-22.868,24.734-38.5,45.487-41.2a53,53,0,0,1,21.72,1.867m1.535-26.792c-17.433,7.923-39.829,11.968-66.648,12.02-13.433-23.481-28.078-41.188-43.581-52.694.271-.191.541-.4.814-.584a75.688,75.688,0,0,1,19.522-9.8,56.57,56.57,0,0,0,9.56,20.583c13.155,17.491,35.839,24.944,59.955,19.977.6-.122,1.193-.246,1.79-.385-.181-.593-.373-1.179-.567-1.763-7.816-23.656-25.525-39.845-47.044-42.647a54.753,54.753,0,0,0-22.364,1.9,78.141,78.141,0,0,1-1.391-22.037c.024-.333.064-.672.091-1.007,17.581,7.857,40.031,11.862,66.807,11.915,13.366,23.573,21.108,45.256,23.055,64.522m-88.15-51.593a52.988,52.988,0,0,1,21.719-1.867c20.753,2.7,37.86,18.334,45.487,41.2-23.349,4.739-45.258-2.465-57.942-19.333a54.745,54.745,0,0,1-9.264-20M802.93,320.109a78.117,78.117,0,0,1-1.391,22.037,54.745,54.745,0,0,0-22.363-1.9c-21.519,2.8-39.229,18.991-47.045,42.647-.193.585-.386,1.17-.567,1.763.6.138,1.194.263,1.79.384,24.118,4.967,46.8-2.486,59.955-19.977a56.574,56.574,0,0,0,9.561-20.583,75.7,75.7,0,0,1,19.521,9.8c.273.188.543.393.815.585-15.5,11.505-30.149,29.212-43.582,52.693-26.82-.052-49.216-4.1-66.648-12.02,1.947-19.266,9.69-40.95,23.055-64.522,26.776-.053,49.227-4.058,66.807-11.915.027.335.067.674.091,1.007m-1.8,23.836a54.763,54.763,0,0,1-9.264,20c-12.685,16.868-34.594,24.072-57.943,19.333,7.627-22.868,24.734-38.5,45.487-41.2a52.994,52.994,0,0,1,21.72,1.867m1.535-26.792c-17.433,7.923-39.829,11.968-66.648,12.02-13.433-23.481-28.078-41.188-43.581-52.694.271-.191.541-.4.814-.584a75.692,75.692,0,0,1,19.522-9.8,56.57,56.57,0,0,0,9.56,20.583c13.155,17.491,35.839,24.944,59.955,19.977.6-.122,1.193-.246,1.79-.385-.181-.593-.373-1.179-.567-1.763-7.816-23.656-25.525-39.845-47.044-42.647a54.749,54.749,0,0,0-22.364,1.9,78.141,78.141,0,0,1-1.391-22.037c.024-.333.064-.672.091-1.007,17.581,7.858,40.031,11.862,66.807,11.915,13.366,23.572,21.108,45.256,23.055,64.522m-88.15-51.593a52.987,52.987,0,0,1,21.719-1.867c20.753,2.7,37.86,18.334,45.487,41.2-23.349,4.739-45.258-2.465-57.942-19.332a54.746,54.746,0,0,1-9.264-20M802.93,163.339a78.116,78.116,0,0,1-1.391,22.037,54.746,54.746,0,0,0-22.363-1.9c-21.519,2.8-39.229,18.991-47.045,42.647-.193.585-.386,1.17-.567,1.763.6.138,1.194.263,1.79.385,24.118,4.967,46.8-2.486,59.955-19.977a56.574,56.574,0,0,0,9.561-20.583,75.7,75.7,0,0,1,19.521,9.8c.273.188.543.393.815.585-15.5,11.505-30.149,29.212-43.582,52.693-26.82-.052-49.216-4.1-66.648-12.02,1.947-19.266,9.69-40.95,23.055-64.522,26.776-.053,49.227-4.057,66.807-11.915.027.335.067.675.091,1.007m-1.8,23.836a54.763,54.763,0,0,1-9.264,20c-12.685,16.868-34.594,24.072-57.943,19.333,7.627-22.868,24.734-38.5,45.487-41.2a53.01,53.01,0,0,1,21.72,1.867m1.535-26.792c-17.433,7.923-39.829,11.968-66.648,12.02-13.433-23.481-28.078-41.188-43.581-52.694.271-.191.541-.4.814-.583a75.664,75.664,0,0,1,19.522-9.8,56.57,56.57,0,0,0,9.56,20.583c13.155,17.491,35.839,24.944,59.955,19.977.6-.122,1.193-.246,1.79-.385-.181-.593-.373-1.179-.567-1.763-7.816-23.656-25.525-39.845-47.044-42.647a54.75,54.75,0,0,0-22.364,1.9,78.141,78.141,0,0,1-1.391-22.037c.024-.332.064-.672.091-1.007,17.581,7.858,40.031,11.862,66.807,11.915,13.366,23.573,21.108,45.256,23.055,64.522m-88.15-51.593a53,53,0,0,1,21.719-1.867c20.753,2.7,37.86,18.334,45.487,41.2-23.349,4.739-45.258-2.465-57.942-19.333a54.738,54.738,0,0,1-9.264-20m65.112-14.772c-26.82-.052-49.216-4.1-66.648-12.02,1.947-19.266,9.69-40.949,23.055-64.522,26.776-.053,49.227-4.057,66.807-11.915.027.335.067.675.091,1.007a78.117,78.117,0,0,1-1.391,22.037,54.746,54.746,0,0,0-22.363-1.9c-21.519,2.8-39.229,18.991-47.045,42.647-.193.585-.386,1.17-.567,1.763.6.138,1.194.263,1.79.385,24.118,4.967,46.8-2.486,59.955-19.977a56.574,56.574,0,0,0,9.561-20.583,75.674,75.674,0,0,1,19.521,9.8c.273.187.543.392.815.584-15.5,11.505-30.149,29.212-43.582,52.693m21.5-63.613a54.756,54.756,0,0,1-9.264,20C779.178,67.275,757.27,74.479,733.921,69.74c7.627-22.868,24.734-38.5,45.487-41.2a53.01,53.01,0,0,1,21.72,1.867" transform="translate(0 0)" fill="#fff"/>
  <path id="Path_7" data-name="Path 7" d="M0,712.937q1.632.539,3.264,1.228H6.1A46.079,46.079,0,0,0,0,711.7Z" transform="translate(0 -53.963)" fill="#fff"/>
  <path id="Path_8" data-name="Path 8" d="M162.269,664.631c-.268.289-.527.581-.786.874-7.69,8.7-11.45,19.088-10.777,29.088h1.173c-.673-9.677,2.953-19.755,10.391-28.215,7.438,8.46,11.064,18.538,10.391,28.215h1.173c.672-10-3.087-20.391-10.777-29.088-.259-.293-.518-.585-.786-.874" transform="translate(-11.41 -34.392)" fill="#fff"/>
  <path id="Path_9" data-name="Path 9" d="M456.717,664.631c-.268.289-.527.581-.786.874-7.69,8.7-11.45,19.088-10.777,29.088h1.173c-.674-9.677,2.953-19.755,10.391-28.215,7.438,8.46,11.064,18.538,10.391,28.215h1.173c.672-10-3.087-20.391-10.777-29.088-.259-.293-.518-.585-.786-.874" transform="translate(-33.715 -34.392)" fill="#fff"/>
  <path id="Path_10" data-name="Path 10" d="M751.166,664.631c-.267.289-.527.581-.786.874-7.691,8.7-11.45,19.088-10.777,29.088h1.173c-.673-9.677,2.952-19.755,10.391-28.215,7.437,8.46,11.064,18.538,10.391,28.215h1.172c.673-10-3.087-20.391-10.777-29.088-.259-.293-.518-.585-.786-.874" transform="translate(-56.02 -34.392)" fill="#fff"/>
  <path id="Path_11" data-name="Path 11" d="M922.4,714.165q1.631-.687,3.263-1.227V711.7a46.083,46.083,0,0,0-6.1,2.46Z" transform="translate(-79.658 -53.963)" fill="#fff"/>
</svg>
